<svg width="3354" height="701" viewBox="0 0 3354 701" fill="none" xmlns="http://www.w3.org/2000/svg">
<path d="M236.144 285.376C235.888 286.144 235.632 287.296 235.44 288.192C234.352 293.568 233.264 303.68 233.264 312.448C233.264 320.768 235.056 328.448 237.04 334.464L232.368 335.872C230.512 330.176 228.784 321.088 228.784 312.96C228.784 304.192 230.064 293.824 230.64 288.32C230.768 287.168 230.832 286.016 230.832 285.184L236.144 285.376ZM225.84 293.248C237.104 293.248 248.24 292.352 257.072 290.368L257.136 295.104C247.92 296.704 235.312 297.664 225.776 297.664C223.024 297.664 218.032 297.408 215.408 297.28L215.28 292.48C217.52 292.864 223.088 293.248 225.84 293.248ZM252.528 300.8C252.144 301.632 251.568 303.36 251.184 304.384C247.408 316.224 241.008 325.12 234.288 330.304C230.192 333.44 225.072 335.808 220.528 335.808C216.304 335.808 212.976 333.248 212.976 327.808C212.976 319.04 221.104 310.016 230.576 306.368C234.864 304.704 240.048 303.744 244.208 303.744C256.304 303.744 263.92 310.784 263.92 319.744C263.92 328.896 257.84 336.896 242.992 339.264L240.24 334.976C251.76 333.696 258.928 327.744 258.928 319.488C258.928 313.28 253.68 307.84 244.144 307.84C238.768 307.84 234.032 309.376 230.768 310.848C223.536 314.048 217.776 321.088 217.776 326.976C217.776 329.6 219.056 330.88 221.424 330.88C224.624 330.88 228.784 329.088 232.88 325.504C238.576 320.512 243.824 313.6 246.768 303.232C247.024 302.272 247.344 300.544 247.408 299.52L252.528 300.8ZM284.272 291.392C283.952 292.864 283.76 295.936 283.696 297.6C283.632 301.568 283.696 307.456 284.144 312.704C285.232 323.392 288.304 330.496 292.912 330.496C296.176 330.496 299.184 323.904 300.848 317.504L304.88 322.048C300.976 332.864 297.136 336.576 292.784 336.576C286.704 336.576 280.944 330.56 279.152 313.984C278.576 308.48 278.448 300.672 278.448 296.96C278.448 295.488 278.448 292.736 278.064 291.264L284.272 291.392ZM317.552 293.12C323.312 300.544 327.92 314.176 328.88 324.992L323.696 327.04C322.608 315.52 318.704 302.336 312.624 294.848L317.552 293.12ZM380.016 314.752C380.016 309.312 375.664 305.536 369.072 305.536C361.712 305.536 355.376 307.648 351.664 308.736C349.68 309.312 347.76 310.016 346.224 310.656L344.624 304.768C346.416 304.64 348.528 304.192 350.512 303.808C354.992 302.784 362.224 300.736 369.648 300.736C378.736 300.736 385.456 305.792 385.456 314.944C385.456 328.832 373.04 336.576 356.464 339.136L353.52 334.272C369.072 332.288 380.016 326.208 380.016 314.752ZM353.136 285.888C360.24 287.488 374.128 288.832 380.336 288.896L379.568 293.824C372.464 293.312 359.6 292.032 352.368 290.752L353.136 285.888ZM417.968 285.568C424.88 287.104 437.104 288.576 443.248 288.896L442.544 293.632C436.144 293.056 424.944 291.648 417.136 290.24L417.968 285.568ZM444.528 303.872C443.312 304.704 441.712 306.048 440.944 306.688C438.512 308.928 431.344 315.648 428.912 318.144C429.616 318.08 430.768 318.08 431.472 318.272C433.904 318.528 435.376 320.192 436.272 322.816C436.912 324.672 437.808 327.936 438.448 329.984C439.216 332.416 440.688 333.504 444.016 333.504C448.176 333.504 453.04 332.928 456.112 332.16L455.728 337.536C453.04 338.048 447.152 338.496 443.76 338.496C438.576 338.496 435.44 337.28 434.032 333.056C433.392 331.136 432.496 327.36 431.856 325.568C431.152 323.328 429.744 322.112 427.952 322.112C426.224 322.112 424.688 323.008 423.216 324.48C420.848 326.72 413.872 334.08 410.224 338.688L405.36 335.296C406.192 334.656 407.344 333.632 408.56 332.416C411.184 329.856 428.592 312.384 434.864 306.112C429.808 306.368 419.056 307.328 415.152 307.648C413.04 307.776 411.376 308.032 410.032 308.224L409.584 302.656C411.056 302.784 412.912 302.784 414.96 302.784C418.672 302.656 433.52 301.696 438.384 301.056C439.472 300.928 440.816 300.608 441.456 300.352L444.528 303.872ZM488.24 284.928C488.048 286.08 487.92 287.808 487.856 289.344C487.664 293.12 487.344 302.912 487.344 309.568C487.344 316.224 487.664 326.208 487.664 330.24C487.664 336.128 485.488 338.048 481.968 338.048C476.976 338.048 468.656 333.184 468.656 327.424C468.656 321.792 476.272 315.84 484.208 312.832C489.904 310.592 496.304 309.44 501.36 309.44C510.768 309.44 517.488 314.496 517.488 322.176C517.488 329.92 512.624 334.848 503.792 336.896C500.976 337.536 498.096 337.664 495.856 337.792L494.064 332.672C496.496 332.672 499.184 332.736 501.616 332.224C507.184 331.136 512.304 328.128 512.304 322.176C512.304 316.736 507.376 313.856 501.36 313.856C495.6 313.856 490.352 315.072 484.912 317.248C478.64 319.68 473.712 323.968 473.712 327.232C473.712 330.112 478.192 332.672 480.688 332.672C482.16 332.672 482.992 331.648 482.992 329.536C482.992 325.824 482.672 316.928 482.672 309.824C482.672 302.464 482.928 292.032 482.928 289.408C482.928 288.192 482.8 285.952 482.608 284.928H488.24ZM508.144 292.032C512.688 294.4 519.664 298.752 522.736 301.312L520.176 305.408C517.04 302.464 509.872 298.048 505.776 295.872L508.144 292.032ZM469.744 296.384C473.264 296.832 475.568 296.896 477.872 296.896C484.208 296.896 494.384 295.552 500.72 293.632L500.848 298.624C494.256 300.224 483.76 301.632 478 301.632C474.416 301.632 471.984 301.504 469.872 301.312L469.744 296.384ZM553.968 286.08C553.712 287.296 553.456 288.64 553.2 289.92C552.816 292.224 551.92 297.472 551.088 301.44C548.912 310.4 544.304 326.336 537.072 338.048L531.888 335.936C539.184 326.208 544.304 309.12 546.032 301.248C547.184 296.192 548.08 290.432 548.08 285.504L553.968 286.08ZM576.048 292.928C580.016 298.112 585.584 309.888 587.696 315.84L582.768 318.208C580.848 311.616 575.856 300.288 571.376 295.04L576.048 292.928ZM530.928 300.16C532.976 300.224 534.64 300.224 536.688 300.16C541.424 300.032 554.416 298.56 558.768 298.56C564.464 298.56 569.136 300.736 569.136 309.44C569.136 317.056 568.112 327.232 565.488 332.544C563.44 336.832 560.24 337.856 556.144 337.856C553.648 337.856 550.64 337.408 548.592 336.96L547.76 331.584C550.448 332.416 553.776 332.928 555.568 332.928C557.936 332.928 559.856 332.416 561.2 329.6C563.248 325.312 564.208 316.928 564.208 310.016C564.208 304.192 561.52 303.104 557.424 303.104C553.136 303.104 541.168 304.512 537.264 304.896C535.792 305.088 533.104 305.408 531.504 305.664L530.928 300.16ZM601.456 292.16C610.352 293.248 618.736 293.376 625.264 292.736C630.512 292.288 635.76 291.2 640.368 289.664L641.072 294.336C636.912 295.552 631.472 296.64 626.352 297.088C619.888 297.728 610.928 297.728 601.776 296.832L601.456 292.16ZM600.176 305.28C611.12 306.432 622 306.24 629.488 305.344C635.568 304.704 640.752 303.424 644.144 302.4L644.976 307.136C641.456 308.096 636.592 309.056 631.216 309.696C623.344 310.72 611.504 310.912 600.496 310.08L600.176 305.28ZM622.064 291.328C621.552 289.472 620.976 287.488 620.272 285.632L625.712 284.928C626.352 290.304 628.336 296.768 629.936 301.312C631.664 306.304 634.48 312.448 637.808 317.376C638.512 318.4 639.28 319.296 640.24 320.128L637.552 324.032C633.968 323.136 628.016 322.496 623.6 322.048L623.984 318.144C627.44 318.464 631.6 318.912 633.584 319.168C630.064 313.664 627.376 307.52 625.52 302.336C623.92 297.92 622.96 294.528 622.064 291.328ZM609.52 319.104C607.984 321.28 606.832 323.456 606.832 326.336C606.832 331.584 611.504 334.272 621.552 334.272C627.504 334.272 632.176 333.824 636.848 332.928L636.592 337.984C632.112 338.752 627.12 339.136 621.616 339.136C609.136 339.136 602.096 335.424 601.968 327.168C601.968 323.52 603.056 320.832 604.528 318.016L609.52 319.104ZM699.056 288.832C697.648 289.856 695.664 291.584 694.64 292.48C690.224 296.32 681.008 303.552 676.272 307.52C672.432 310.848 672.368 311.808 676.528 315.264C682.352 320.064 693.68 329.152 700.464 336L695.92 340.16C694.576 338.624 693.04 337.088 691.504 335.488C686.96 330.88 677.296 322.56 671.28 317.632C665.264 312.576 665.968 309.824 671.728 304.96C676.592 300.928 686.32 293.248 690.608 288.896C691.888 287.616 693.552 285.76 694.256 284.608L699.056 288.832ZM766.704 286.144C766.512 287.168 766.448 288.448 766.448 289.92C766.384 292.288 766.64 303.104 766.64 306.688C766.64 321.344 766.64 331.84 753.072 339.776L748.4 336.192C750.384 335.36 753.008 333.76 754.608 332.16C761.456 326.208 761.776 318.912 761.776 306.624C761.776 302.528 761.52 292.608 761.328 289.92C761.2 288.512 760.944 287.104 760.688 286.144H766.704ZM743.28 299.392C746.096 299.84 750.128 300.096 753.648 300.096C761.52 300.096 770.608 299.584 777.008 298.112V303.296C770.8 304.32 761.84 304.896 753.712 304.896C750.576 304.896 746.096 304.704 743.28 304.448V299.392ZM734.32 287.104C733.936 288.256 733.488 290.048 733.232 291.264C731.184 300.544 728.944 314.56 731.44 325.056C732.272 322.304 733.68 318.4 734.832 315.264L737.584 316.928C736.048 321.344 734.128 327.872 733.424 331.072C733.232 331.968 733.104 333.184 733.168 333.952C733.168 334.592 733.296 335.424 733.36 336.128L728.944 336.64C727.664 332.672 725.616 324.352 725.616 316.352C725.616 305.92 727.28 296.128 728.048 290.752C728.24 289.344 728.304 287.616 728.368 286.464L734.32 287.104ZM796.976 291.136C801.584 291.648 807.472 291.904 813.936 291.904C820.08 291.904 826.544 291.52 831.152 291.008V296.256C826.8 296.576 819.824 297.024 813.936 297.024C807.536 297.024 802.032 296.768 796.976 296.32V291.136ZM799.536 316.928C798.768 319.424 798.256 321.792 798.256 324.16C798.256 329.088 803.248 332.416 813.488 332.416C822.256 332.416 830.512 331.456 835.376 329.92L835.44 335.424C830.832 336.64 822.704 337.6 813.616 337.6C800.624 337.6 793.072 333.376 793.072 325.312C793.072 321.984 793.776 318.976 794.352 316.416L799.536 316.928ZM879.472 290.688C879.088 289.28 878.512 287.36 877.872 285.632L883.376 284.992C883.952 288.704 885.616 294.208 887.088 298.368C889.072 303.872 892.336 309.824 895.088 313.536C895.92 314.816 896.88 315.904 897.84 316.928L895.28 320.576C892.208 319.808 884.4 319.104 879.792 318.784L880.176 314.56C883.76 314.88 888.496 315.264 890.8 315.52C888.112 311.424 884.592 305.088 882.48 299.264C881.072 295.616 880.176 292.672 879.472 290.688ZM856.048 295.68C866.736 296.896 876.848 296.96 884.144 296.192C889.2 295.616 895.536 294.464 900.528 292.736L901.104 297.792C896.56 299.072 890.48 300.096 885.808 300.672C877.68 301.632 867.504 301.696 856.176 300.736L856.048 295.68ZM865.968 316.032C864.048 319.168 862.896 321.92 862.896 324.928C862.896 331.072 868.464 333.696 878 333.824C884.464 333.824 890.032 333.184 894.448 332.224L894.256 337.344C890.224 338.048 884.848 338.752 877.68 338.688C865.52 338.624 857.84 334.272 857.84 325.568C857.84 321.984 859.12 318.656 860.976 314.88L865.968 316.032ZM931.76 286.144C931.44 288.256 931.248 290.496 931.12 292.608C930.864 299.84 930.352 315.008 930.352 324.544C930.352 331.584 934.768 334.016 940.848 334.016C952.56 334.016 959.216 327.488 963.824 320.832L967.408 325.184C963.056 331.264 954.736 339.264 940.72 339.264C931.504 339.264 925.168 335.488 925.168 324.992C925.168 315.52 925.808 299.328 925.808 292.608C925.808 290.24 925.616 288 925.232 286.144H931.76ZM1012.88 285.312C1012.75 286.08 1012.56 288.576 1012.56 289.344C1012.37 293.504 1012.49 305.856 1012.56 310.976L1007.69 308.48C1007.69 305.664 1007.63 292.928 1007.44 289.408C1007.31 287.68 1007.12 285.888 1006.99 285.312H1012.88ZM978.83 294.272C987.534 294.144 1003.53 293.568 1013.39 293.568C1021.2 293.568 1029.13 293.568 1032.14 293.632L1032.08 298.368C1028.49 298.176 1022.73 298.048 1013.33 298.048C1002.32 298.048 988.622 298.496 978.958 299.2L978.83 294.272ZM1012.43 312.832C1012.43 321.408 1008.46 325.696 1002.64 325.696C997.262 325.696 992.078 321.92 992.078 314.944C992.078 308.608 997.326 303.872 1003.41 303.872C1010.83 303.872 1014.61 309.376 1014.61 316.736C1014.61 325.44 1010.38 335.04 995.534 339.456L991.246 335.296C1002.89 332.544 1009.68 326.848 1009.68 316.288C1009.68 310.528 1006.86 308.096 1003.41 308.096C1000.01 308.096 996.878 310.72 996.878 314.88C996.878 318.912 999.886 321.216 1003.41 321.216C1007.37 321.216 1009.93 317.888 1008.91 311.04L1012.43 312.832ZM1084.05 286.656C1083.92 287.744 1083.79 289.92 1083.79 291.328C1083.73 295.296 1083.73 299.776 1083.6 303.04C1083.47 307.968 1083.28 314.88 1082.64 318.208C1082.06 321.088 1080.59 321.92 1077.71 321.92C1075.34 321.92 1070.93 321.344 1069.26 321.024L1069.33 316.544C1071.57 317.056 1074.25 317.376 1075.73 317.376C1077.33 317.376 1077.97 317.12 1078.22 315.648C1078.61 313.216 1078.86 307.648 1078.93 303.104C1078.99 299.52 1078.99 295.04 1078.99 291.52C1078.99 290.048 1078.8 287.808 1078.61 286.656H1084.05ZM1058.77 288.704C1058.57 290.176 1058.51 291.904 1058.51 293.888C1058.45 300.8 1058.25 318.4 1058.38 322.816C1058.64 329.728 1058.7 332.16 1069.77 332.16C1076.75 332.16 1084.69 331.456 1088.85 330.688L1088.65 336.064C1084.37 336.512 1076.56 337.152 1070.03 337.152C1055.25 337.152 1053.84 333.696 1053.58 323.52C1053.45 318.144 1053.52 297.024 1053.52 294.08C1053.52 292.16 1053.45 290.624 1053.13 288.704H1058.77ZM1039.63 304C1041.61 304 1043.98 303.872 1046.29 303.616C1053.2 303.04 1077.58 300.48 1090.7 299.776C1092.37 299.712 1094.22 299.584 1095.69 299.456V304.512C1094.73 304.448 1092.3 304.512 1090.7 304.512C1080.46 304.704 1054.73 307.392 1046.61 308.352C1044.69 308.608 1041.93 308.992 1040.14 309.248L1039.63 304ZM1117.45 288.256C1119.05 288.384 1120.59 288.448 1122.57 288.448C1125.39 288.448 1138.57 287.872 1142.22 287.488C1143.76 287.36 1144.97 287.104 1145.74 286.848L1148.94 290.496C1148.11 291.072 1146.45 292.16 1145.55 292.928C1140.75 296.832 1131.53 304.576 1126.41 308.672C1136.14 307.584 1147.66 306.752 1156.81 306.752L1156.88 311.488C1150.61 311.168 1144.46 311.232 1140.62 311.808C1134.41 312.704 1128.27 317.952 1128.27 323.968C1128.27 330.432 1133.45 332.608 1139.34 333.44C1143.12 333.888 1146.19 333.76 1148.49 333.568L1147.47 338.816C1131.79 339.456 1123.28 334.592 1123.28 324.736C1123.28 319.296 1127.44 314.624 1130.77 312.64C1123.92 313.216 1115.34 314.24 1107.66 315.52L1107.21 310.72C1110.67 310.336 1115.02 309.824 1118.29 309.44C1125.26 304.576 1135.37 295.68 1139.47 292.096C1136.59 292.288 1125.39 292.8 1122.64 293.056C1120.97 293.184 1119.12 293.376 1117.71 293.504L1117.45 288.256ZM1193.04 285.696C1192.65 287.104 1192.21 289.536 1191.95 290.752C1190.99 295.36 1189.65 302.592 1187.85 308.992C1185.55 318.08 1181.26 331.328 1177.87 338.304L1172.3 336.448C1176.14 329.792 1180.62 316.8 1183.05 307.776C1184.59 301.888 1186.25 293.824 1186.7 290.496C1186.96 288.704 1187.09 286.528 1186.96 285.184L1193.04 285.696ZM1178.89 296.384C1185.93 296.384 1195.34 295.232 1203.28 293.248V298.24C1195.34 300.032 1185.68 301.12 1178.77 301.12C1175.95 301.12 1173.71 301.056 1171.34 300.864L1171.21 295.872C1174.22 296.256 1176.53 296.384 1178.89 296.384ZM1199.12 305.152C1202.45 304.832 1206.73 304.64 1210.83 304.64C1214.54 304.64 1218.45 304.768 1221.9 305.152L1221.77 310.016C1218.45 309.632 1214.73 309.248 1210.96 309.248C1206.99 309.248 1203.02 309.504 1199.12 309.952V305.152ZM1200.4 320.704C1199.89 322.816 1199.5 324.8 1199.5 326.464C1199.5 329.472 1201.23 332.416 1210.32 332.416C1214.54 332.416 1218.89 331.968 1222.86 331.2L1222.67 336.32C1219.21 336.832 1214.93 337.216 1210.25 337.216C1200.21 337.216 1194.7 334.144 1194.7 327.808C1194.7 325.376 1195.09 322.944 1195.66 320.256L1200.4 320.704ZM1255.82 285.888C1255.31 287.616 1254.99 289.6 1254.61 291.264C1253.71 296.384 1251.15 308.736 1248.97 314.688C1254.54 310.784 1260.3 309.184 1266.96 309.184C1277.13 309.184 1283.09 314.368 1283.09 321.856C1283.09 335.232 1269.45 340.16 1250 338.112L1248.65 332.992C1263.5 335.04 1277.84 332.544 1277.84 321.984C1277.84 317.248 1273.93 313.536 1266.45 313.536C1258.83 313.536 1251.73 316.16 1247.5 321.216C1246.73 322.176 1246.16 323.072 1245.52 324.16L1240.78 322.496C1245.65 312.96 1249.04 297.088 1249.81 290.944C1250.06 288.896 1250.19 287.36 1250.06 285.632L1255.82 285.888ZM1235.92 294.08C1239.31 294.656 1244.17 295.104 1248.01 295.104C1256.21 295.104 1268.81 294.144 1278.86 291.904L1278.99 296.832C1269.9 298.432 1256.85 299.712 1248.08 299.712C1243.73 299.712 1239.63 299.392 1235.98 299.072L1235.92 294.08ZM1297.36 302.592C1299.73 302.208 1302.03 301.504 1304.46 300.8C1309.84 299.072 1322.45 294.464 1331.79 294.464C1342.35 294.464 1350.8 300.608 1350.8 311.296C1350.8 326.656 1335.57 334.016 1315.85 335.168L1313.55 329.856C1330.25 329.408 1345.23 324.288 1345.23 311.232C1345.23 304.512 1340.3 299.2 1331.66 299.2C1321.1 299.2 1304.85 306.24 1299.73 308.288L1297.36 302.592ZM1362.13 293.504C1364.56 293.44 1366.61 293.312 1367.89 293.184C1372.05 292.736 1384.08 291.584 1395.92 290.56C1402.89 289.984 1408.85 289.6 1413.13 289.472L1413.2 294.592C1409.49 294.528 1403.92 294.656 1400.65 295.552C1391.5 298.496 1385.93 308.288 1385.93 315.84C1385.93 328.32 1397.65 332.288 1408.01 332.736L1406.22 337.984C1394.32 337.536 1380.88 331.264 1380.88 316.928C1380.88 306.944 1386.96 298.816 1392.85 295.36C1385.93 296.064 1369.68 297.664 1362.7 299.136L1362.13 293.504ZM1472.78 297.856C1471.37 298.688 1469.77 299.584 1467.85 300.544C1463.57 302.784 1454.67 307.008 1448.4 311.104C1442.45 315.008 1438.86 319.232 1438.86 324.032C1438.86 329.344 1443.98 332.672 1454.09 332.672C1461.01 332.672 1469.58 331.776 1474.57 330.496L1474.51 336.256C1469.71 337.088 1462.29 337.792 1454.29 337.792C1442.25 337.792 1433.55 334.208 1433.55 324.608C1433.55 317.696 1438.22 312.256 1445.77 307.264C1452.3 302.912 1461.26 298.624 1465.42 296.256C1467.28 295.168 1468.69 294.336 1470.03 293.248L1472.78 297.856ZM1440.4 286.208C1443.34 294.4 1447.31 302.4 1450.25 307.584L1445.9 310.208C1442.64 304.96 1438.8 296.32 1435.34 288.384L1440.4 286.208ZM1488.96 295.68C1491.32 295.936 1494.08 296.064 1496.83 296.064C1503.74 296.064 1511.8 295.232 1519.16 292.8L1519.29 297.536C1513.02 299.264 1504.64 300.672 1496.83 300.608C1494.46 300.608 1491.71 300.544 1489.34 300.48L1488.96 295.68ZM1511.68 285.248C1510.84 288.384 1509.5 294.4 1507.96 298.944C1504.89 308.16 1499 319.808 1493.69 326.976L1488.76 324.416C1494.46 317.76 1500.41 306.368 1503.04 298.816C1504.44 294.784 1505.85 289.152 1506.04 284.672L1511.68 285.248ZM1526.78 305.024C1526.59 307.648 1526.59 309.568 1526.65 311.872C1526.78 316.032 1527.36 325.76 1527.36 329.984C1527.36 335.104 1524.09 339.264 1516.16 339.264C1509.12 339.264 1503.42 336.448 1503.42 330.048C1503.42 324.16 1508.99 320.448 1516.16 320.448C1526.91 320.448 1535.16 325.824 1540.41 330.368L1537.72 334.72C1532.8 330.24 1525.44 324.544 1516.03 324.544C1511.29 324.544 1508.09 326.72 1508.09 329.664C1508.09 332.608 1510.59 334.656 1515.58 334.656C1520.89 334.656 1522.68 331.84 1522.68 328.384C1522.68 323.52 1521.98 312.064 1521.72 305.024H1526.78ZM1539.58 306.688C1536.12 303.744 1529.15 299.84 1524.92 297.856L1527.48 294.016C1532.16 296 1539.39 300.16 1542.46 302.464L1539.58 306.688ZM1575.93 292.8C1582.91 294.016 1595.9 293.76 1602.24 292.8V297.984C1595.39 298.752 1582.97 298.752 1576 297.984L1575.93 292.8ZM1578.43 318.912C1577.85 321.216 1577.53 323.008 1577.53 324.736C1577.53 327.68 1579.58 330.56 1588.35 330.56C1594.04 330.56 1599.04 330.048 1604.16 328.832L1604.28 334.208C1600.32 335.04 1594.94 335.552 1588.28 335.552C1577.6 335.552 1572.8 331.968 1572.8 325.952C1572.8 323.84 1573.12 321.536 1573.82 318.464L1578.43 318.912ZM1563.77 287.872C1563.39 288.96 1562.88 291.008 1562.62 292.16C1561.4 298.112 1559.42 309.504 1559.42 316.736C1559.42 319.808 1559.61 322.496 1560 325.632C1561.08 322.752 1562.56 318.912 1563.64 316.288L1566.33 318.4C1564.73 322.944 1562.36 329.664 1561.79 332.736C1561.6 333.632 1561.47 334.848 1561.47 335.616C1561.53 336.256 1561.6 337.152 1561.66 337.856L1557.12 338.176C1555.84 333.632 1554.75 326.272 1554.75 317.568C1554.75 308.16 1556.86 297.216 1557.63 291.904C1557.82 290.432 1558.01 288.832 1558.08 287.424L1563.77 287.872ZM1648.51 286.08C1648.25 287.68 1648 289.92 1647.87 291.2C1647.04 297.92 1646.08 305.856 1643.58 312.896C1639.48 324.48 1632.06 335.36 1623.74 335.36C1619.13 335.36 1615.55 331.648 1615.55 325.44C1615.55 318.848 1617.85 313.344 1620.92 309.056C1625.72 302.208 1634.88 294.656 1648.19 294.656C1658.56 294.656 1667.39 301.632 1667.39 313.472C1667.39 327.04 1662.65 336.96 1652.03 336.96C1645.95 336.96 1642.04 333.824 1642.04 328.64C1642.04 324.224 1646.14 320.128 1652.03 320.128C1661.76 320.128 1668.67 326.72 1672.57 331.2L1669.5 335.168C1666.11 331.072 1660.03 324.032 1652.22 324.032C1648.38 324.032 1646.4 326.144 1646.4 328.256C1646.4 330.816 1648.44 332.544 1651.84 332.544C1659.58 332.544 1662.52 323.136 1662.52 313.664C1662.52 305.408 1657.28 298.944 1647.8 298.944C1637.37 299.008 1629.56 304.448 1624.76 311.552C1621.88 315.776 1620.16 320.192 1620.16 324.736C1620.16 327.936 1621.95 330.24 1623.93 330.24C1629.18 330.24 1635.45 321.728 1639.16 311.424C1641.34 305.152 1642.56 296.64 1642.94 291.264C1643 289.024 1643.07 287.808 1642.88 285.952L1648.51 286.08ZM1624 291.712C1625.53 299.072 1629.24 308.288 1631.36 312.768C1633.15 316.672 1635.32 320.192 1637.63 323.072L1634.56 326.976C1632.44 324.608 1629.95 320.704 1627.96 316.608C1625.92 312.448 1623.16 305.024 1621.56 300.288C1620.86 297.984 1620.28 296.192 1619.2 293.632L1624 291.712ZM1734.27 333.76C1728.44 327.04 1722.68 322.88 1715.58 322.88C1712.32 322.88 1709.24 324.672 1709.24 327.424C1709.24 330.752 1712.32 332.224 1715.9 332.224C1724.16 332.224 1725.88 323.136 1725.88 311.872C1725.88 303.872 1722.11 298.816 1716.67 298.816C1710.08 298.816 1700.54 306.368 1694.97 312.896L1695.1 306.752C1700.41 301.696 1709.5 294.272 1717.56 294.272C1726.14 294.272 1730.75 302.08 1730.75 312.576C1730.75 327.424 1727.42 336.704 1716.22 336.704C1710.08 336.704 1704.89 334.144 1704.89 327.68C1704.89 322.496 1709.5 318.848 1716.03 318.848C1723.77 318.848 1730.11 322.24 1737.08 329.6L1734.27 333.76ZM1694.14 300.608C1692.03 300.928 1685.12 301.76 1680.38 302.464L1679.8 297.216C1681.21 297.28 1682.43 297.216 1684.03 297.152C1687.42 296.96 1695.42 295.936 1698.36 294.976L1700.28 297.216C1699.13 298.816 1697.4 301.632 1696.32 303.424L1694.4 312.128C1691.45 316.672 1685.44 325.248 1681.47 330.88L1678.27 326.528C1682.24 321.536 1690.88 309.76 1693.37 305.536L1693.63 302.272L1694.14 300.608ZM1693.5 289.984C1693.5 288.512 1693.56 286.848 1693.31 285.248L1699.26 285.44C1698.43 289.6 1696.44 307.904 1696.44 319.168C1696.44 324.992 1696.44 328.896 1696.7 334.592C1696.76 335.68 1696.96 337.28 1697.02 338.496H1691.52C1691.58 337.6 1691.71 335.744 1691.71 334.72C1691.71 328.512 1691.77 325.312 1691.84 318.272C1691.96 312.64 1693.5 292.352 1693.5 289.984ZM1774.84 292.352C1774.01 299.008 1772.73 306.496 1770.75 313.344C1766.84 326.464 1761.72 333.248 1755.84 333.248C1750.08 333.248 1744.38 326.72 1744.38 316.096C1744.38 302.208 1756.73 290.112 1772.41 290.112C1787.39 290.112 1796.92 300.672 1796.92 313.664C1796.92 327.04 1788.09 336 1772.86 337.984L1769.92 333.248C1771.96 333.056 1773.88 332.8 1775.42 332.48C1783.61 330.624 1791.68 324.48 1791.68 313.408C1791.68 303.168 1784.57 294.72 1772.28 294.72C1758.2 294.72 1749.44 306.304 1749.44 315.712C1749.44 323.776 1753.08 327.36 1755.96 327.36C1758.97 327.36 1762.43 323.008 1765.69 312.192C1767.55 306.112 1768.89 298.88 1769.53 292.224L1774.84 292.352ZM1828.28 298.176C1831.93 298.56 1835.39 298.752 1839.16 298.752C1846.84 298.752 1854.72 298.176 1861.18 296.832V301.76C1854.4 302.912 1846.59 303.424 1839.1 303.424C1835.39 303.424 1832.06 303.296 1828.35 303.04L1828.28 298.176ZM1850.68 286.72C1850.49 288 1850.36 289.344 1850.3 290.56C1850.17 292.928 1850.11 297.472 1850.11 301.248C1850.11 311.104 1851.07 321.088 1851.07 327.68C1851.07 332.928 1848.64 338.048 1840 338.048C1831.42 338.048 1826.75 334.592 1826.75 328.832C1826.75 323.456 1831.48 319.232 1839.93 319.232C1850.68 319.232 1858.17 324.672 1863.55 329.536L1860.8 333.76C1854.08 327.488 1847.61 323.136 1839.48 323.136C1834.68 323.136 1831.36 325.248 1831.36 328.32C1831.36 331.648 1834.49 333.376 1839.16 333.376C1844.54 333.376 1846.08 330.688 1846.08 326.4C1846.08 321.792 1845.24 309.824 1845.24 301.376C1845.24 296.96 1845.18 292.928 1845.18 290.688C1845.18 289.536 1845.12 287.872 1844.92 286.72H1850.68ZM1819.13 287.168C1818.75 288.192 1818.24 290.304 1817.98 291.456C1816.7 297.408 1814.78 310.08 1814.78 317.248C1814.78 320.384 1814.97 323.072 1815.42 326.208C1816.44 323.264 1818.04 319.36 1819.13 316.736L1821.76 318.784C1820.16 323.264 1817.79 329.792 1817.15 332.928C1816.96 333.824 1816.83 335.104 1816.89 335.808C1816.96 336.448 1817.02 337.408 1817.08 338.048L1812.54 338.432C1811.32 333.824 1810.11 326.784 1810.11 318.144C1810.11 308.736 1812.28 296.512 1813.05 291.264C1813.31 289.728 1813.44 288.064 1813.5 286.656L1819.13 287.168ZM1913.79 288.704C1915.13 296.448 1917.88 307.392 1927.36 315.84L1923.96 320.384C1916.86 312.832 1912.51 303.232 1908.73 290.176L1913.79 288.704ZM1873.72 292.16C1874.68 292.224 1876.03 292.224 1877.18 292.16C1882.88 291.904 1893.63 290.368 1897.4 288.96L1898.88 293.44C1898.04 293.696 1896.44 294.144 1895.48 294.592C1891.45 297.6 1881.66 308.8 1881.66 321.92C1881.66 331.008 1887.61 334.016 1894.2 334.016C1909.44 334.016 1914.62 317.632 1909.76 292.544L1914.43 301.184C1917.76 319.488 1914.17 339.264 1894.08 339.264C1884.03 339.264 1876.67 333.632 1876.67 323.008C1876.67 311.104 1882.94 301.888 1888.57 295.552C1885.31 296.064 1880.06 296.704 1877.76 296.96C1876.54 297.152 1875.45 297.28 1874.11 297.536L1873.72 292.16ZM1963 300.992C1964.73 299.904 1966.52 298.56 1967.48 297.792C1964.67 295.488 1958.72 292.288 1953.79 290.304L1956.73 286.592C1961.66 288.64 1968.7 292.16 1972.54 294.976L1973.76 298.24C1972.22 299.52 1968.64 302.4 1966.2 304.064L1963 300.992ZM1950.65 331.584C1953.92 332.544 1956.99 333.056 1961.02 333.056C1963.96 333.056 1967.48 331.84 1967.48 327.68C1967.48 323.392 1962.88 317.632 1959.29 313.728C1957.88 312.192 1955.96 310.4 1954.17 308.864L1957.95 305.6C1959.48 307.2 1961.15 308.928 1962.62 310.528C1968.64 316.864 1972.86 322.496 1972.86 328.256C1972.86 336.128 1966.46 337.856 1961.85 337.856C1957.76 337.856 1954.24 337.408 1951.36 336.896L1950.65 331.584ZM1987.58 333.952C1985.79 327.872 1981.31 318.72 1976.89 313.728L1981.12 311.424C1985.53 316.544 1990.33 325.76 1992.32 331.392L1987.58 333.952ZM1952.83 321.536C1949.12 325.376 1942.72 330.752 1936.51 334.464L1933.44 330.24C1938.75 327.36 1946.17 321.664 1949.82 317.696L1952.83 321.536ZM1998.33 318.464C1999.93 317.248 2001.28 315.968 2002.94 314.24C2006.4 310.784 2011.71 303.488 2015.55 299.008C2019.26 294.592 2022.59 293.952 2026.81 298.304C2030.65 302.208 2035.58 308.544 2039.68 312.96C2043.52 317.184 2049.92 323.904 2055.68 329.024L2051.58 333.696C2046.72 329.088 2040.89 322.56 2036.54 317.568C2032.38 312.896 2027.45 306.688 2024.51 303.424C2021.76 300.416 2020.54 300.928 2018.36 303.616C2015.36 307.328 2010.11 314.368 2006.84 318.336C2005.56 320.064 2004.09 321.984 2003.07 323.328L1998.33 318.464ZM2105.15 292.48C2105.15 297.152 2105.15 303.296 2105.15 307.264C2105.15 315.328 2105.98 324.288 2105.98 329.344C2105.98 334.592 2102.33 337.6 2095.48 337.6C2088.38 337.6 2083.2 334.656 2083.2 328.64C2083.2 324.16 2086.91 319.872 2095.42 319.872C2106.75 319.872 2114.49 325.44 2119.29 329.728L2116.6 334.208C2110.52 327.936 2102.84 323.712 2095.29 323.712C2090.68 323.712 2087.68 325.568 2087.68 328.384C2087.68 331.52 2090.56 333.184 2095.04 333.184C2100.03 333.184 2101.31 330.624 2101.31 327.168C2101.31 323.584 2100.54 314.112 2100.54 307.456C2100.54 302.912 2100.54 296 2100.54 292.48H2105.15ZM2085.05 304.96C2096.57 305.856 2108.35 305.088 2117.05 304.064V308.736C2108.86 309.632 2096.51 310.272 2085.12 309.632L2085.05 304.96ZM2086.08 290.112C2096.38 290.944 2108.16 290.304 2115.64 289.216V293.76C2108.28 294.528 2096.44 295.168 2086.08 294.656V290.112ZM2075.07 287.488C2074.68 288.576 2074.17 290.624 2073.98 291.776C2072.7 297.728 2070.84 310.08 2070.84 317.248C2070.84 320.384 2071.04 323.136 2071.48 326.272C2072.44 323.392 2074.04 319.296 2075.2 316.736L2077.76 318.848C2076.16 323.264 2073.92 329.856 2073.21 332.992C2073.02 333.888 2072.89 335.104 2072.96 335.808C2072.96 336.448 2073.08 337.408 2073.15 338.048L2068.54 338.432C2067.26 333.824 2066.11 326.784 2066.11 318.144C2066.11 308.736 2068.22 296.832 2068.99 291.52C2069.24 290.048 2069.44 288.32 2069.44 286.976L2075.07 287.488ZM2159.42 285.248C2159.29 286.336 2159.16 287.616 2159.1 289.536C2158.97 292.096 2158.97 300.672 2158.97 306.048C2158.97 314.496 2159.93 325.696 2159.93 329.984C2159.93 334.464 2156.99 339.008 2148.67 339.008C2139.45 339.008 2134.4 335.744 2134.4 329.536C2134.4 323.712 2139.96 319.808 2149.18 319.808C2162.68 319.808 2173.24 327.104 2178.17 331.136L2175.23 335.68C2169.47 330.368 2160 323.968 2148.6 323.968C2142.46 323.968 2139.2 326.336 2139.2 329.28C2139.2 332.288 2141.69 334.464 2148.03 334.464C2151.74 334.464 2154.88 333.376 2154.88 328.896C2154.88 323.968 2154.24 311.68 2154.24 306.048C2154.24 300.288 2154.24 293.568 2154.24 289.088C2154.24 288 2154.17 286.08 2153.98 285.248H2159.42ZM2134.97 292.16C2139.07 292.928 2147.07 293.568 2151.29 293.568C2159.42 293.568 2168 292.992 2176.32 291.648V296.32C2169.08 297.152 2159.93 297.984 2151.36 297.984C2146.94 297.984 2139.07 297.408 2135.04 296.896L2134.97 292.16ZM2134.65 305.792C2139.2 306.496 2146.49 306.944 2150.72 306.944C2160 306.944 2168.51 306.304 2176.83 305.088V309.888C2168.12 310.976 2160.32 311.424 2150.72 311.424C2146.3 311.424 2139.26 311.104 2134.72 310.592L2134.65 305.792ZM2201.08 289.088C2202.68 289.216 2204.54 289.28 2205.88 289.28C2209.28 289.28 2217.66 288.896 2220.35 288.64C2221.56 288.576 2222.65 288.32 2223.55 288L2226.75 290.56C2226.11 291.264 2225.6 291.904 2225.08 292.736C2223.04 296.064 2219.52 304.256 2216.57 310.848C2214.01 316.48 2210.49 325.184 2207.74 329.152C2205.5 332.416 2203 333.632 2199.68 333.632C2194.94 333.632 2191.42 330.176 2191.42 324.864C2191.42 315.2 2200.51 307.84 2213.5 307.84C2227.9 307.84 2240.57 315.52 2247.48 320.448L2245.12 325.888C2237.63 319.424 2225.92 312.32 2212.73 312.32C2202.11 312.32 2196.03 318.272 2196.03 324.16C2196.03 327.04 2197.88 328.512 2199.87 328.512C2201.34 328.512 2202.43 328 2203.77 326.272C2206.4 322.816 2209.28 315.392 2211.71 310.016C2214.27 304.448 2217.15 297.856 2219.32 293.312C2216.76 293.376 2208.96 293.76 2206.08 293.888C2204.67 293.952 2202.81 294.144 2201.28 294.336L2201.08 289.088ZM2241.08 303.104C2240.19 321.344 2236.48 332.416 2221.56 339.904L2217.34 336.384C2232.38 330.048 2235.13 317.952 2235.84 308.48C2235.96 306.56 2236.03 304.384 2235.84 302.528L2241.08 303.104ZM2274.62 285.312C2274.36 286.656 2274.17 289.024 2274.17 291.328C2274.11 294.528 2274.17 306.56 2274.17 310.912L2269.5 308.352C2269.5 304.832 2269.5 294.72 2269.44 291.328C2269.44 288.832 2269.31 286.656 2268.99 285.312H2274.62ZM2297.02 291.776C2300.8 294.272 2306.88 299.968 2309.82 303.552L2306.24 307.2C2303.1 303.168 2297.28 297.6 2293.69 295.104L2297.02 291.776ZM2256.7 293.76C2260.48 294.4 2263.61 294.656 2266.81 294.656C2272.89 294.656 2280 293.696 2286.46 291.904V296.832C2279.93 298.304 2272.38 299.136 2267.13 299.136C2264.32 299.136 2260.67 299.008 2256.89 298.496L2256.7 293.76ZM2272.57 322.624C2272.44 323.968 2272.32 327.104 2272.32 329.024C2272.32 332.608 2273.21 333.952 2282.56 333.952C2286.14 333.952 2291.07 333.504 2293.37 332.864C2296.7 331.84 2298.68 329.92 2298.68 325.696C2298.68 323.2 2298.62 321.024 2298.3 318.464L2303.8 320.192C2303.8 322.752 2303.87 324.416 2303.8 327.104C2303.55 333.12 2301.24 335.872 2295.48 337.472C2292.67 338.176 2286.46 338.752 2282.24 338.752C2269.37 338.752 2267.52 335.68 2267.52 330.944C2267.52 328.64 2267.64 326.336 2267.77 324.288L2272.57 322.624ZM2275.84 314.176C2275.84 319.936 2273.6 328 2265.53 328C2261.88 328 2257.28 325.376 2257.28 317.888C2257.28 311.36 2261.44 305.344 2267.77 305.344C2272.89 305.344 2275.84 309.056 2275.84 314.176ZM2266.04 323.264C2269.88 323.264 2271.16 318.72 2271.16 314.432C2271.16 311.36 2269.69 309.44 2267.45 309.44C2264.32 309.44 2261.56 312.832 2261.56 317.632C2261.56 321.216 2263.68 323.264 2266.04 323.264ZM2357.63 286.464C2357.18 288.064 2356.8 290.304 2356.48 291.52C2354.17 302.08 2349.69 315.456 2344.57 322.496C2339.71 329.28 2335.04 334.08 2329.21 334.08C2324.35 334.08 2320.25 330.048 2320.25 322.56C2320.25 314.496 2325.18 305.984 2331.96 301.44C2338.3 297.152 2344.57 295.488 2351.16 295.488C2363.71 295.488 2372.8 303.936 2372.8 316.416C2372.8 329.216 2363.64 336.96 2349.88 338.88L2346.94 334.336C2360.32 333.12 2367.68 326.144 2367.68 316.224C2367.68 306.816 2360.89 299.904 2350.59 299.904C2344.38 299.904 2338.81 302.016 2333.82 305.728C2328.38 309.632 2324.92 316.48 2324.92 322.24C2324.92 326.464 2326.78 329.024 2329.66 329.024C2333.82 329.024 2338.3 323.584 2341.56 318.4C2345.79 311.872 2350.08 300.16 2351.68 290.816C2351.93 289.536 2352.12 287.424 2352.06 285.952L2357.63 286.464ZM2331.39 289.408C2331.71 291.136 2332.22 293.248 2332.73 295.04C2334.4 301.312 2337.98 311.168 2340.67 315.648C2342.84 319.36 2345.85 323.584 2348.92 326.528L2344.89 329.792C2342.33 326.976 2339.96 323.84 2337.53 319.68C2334.4 314.688 2330.68 304.896 2328.25 296.896C2327.61 294.848 2326.91 292.736 2326.08 291.072L2331.39 289.408ZM2407.1 285.696C2406.72 287.424 2406.52 288.768 2406.27 290.176C2405.44 297.344 2402.56 317.056 2402.56 323.968C2402.56 330.176 2406.08 333.952 2413.37 333.952C2423.1 333.952 2429.31 329.728 2429.31 323.072C2429.31 318.784 2427 314.048 2422.27 310.08L2427.9 308.864C2432.32 313.728 2434.49 318.208 2434.49 323.648C2434.49 333.184 2425.98 339.008 2413.31 339.008C2404.67 339.008 2397.63 335.168 2397.63 324.736C2397.63 317.888 2400.64 298.752 2401.34 289.92C2401.53 287.68 2401.53 286.528 2401.4 285.376L2407.1 285.696ZM2386.62 294.208C2392 295.936 2399.68 296.768 2405.37 296.768C2410.24 296.768 2414.65 296.512 2418.43 295.936L2418.3 300.8C2414.2 301.184 2410.43 301.376 2405.24 301.376C2399.61 301.376 2391.93 300.416 2386.3 298.88L2386.62 294.208ZM2385.02 310.144C2391.23 312.32 2398.72 312.896 2404.6 312.896C2409.02 312.896 2413.44 312.768 2417.92 312.128L2417.85 316.992C2413.56 317.44 2409.6 317.568 2405.31 317.568C2398.33 317.568 2390.59 316.8 2384.76 315.008L2385.02 310.144ZM2478.27 295.424C2475.84 292.928 2471.61 289.024 2468.92 286.976L2472.57 284.352C2474.68 286.016 2479.55 290.048 2481.92 292.544L2478.27 295.424ZM2457.92 289.856C2458.43 290.944 2459.52 292.992 2460.16 294.208C2462.65 298.688 2465.72 305.152 2468.35 310.976C2471.8 318.976 2475.9 330.816 2478.08 337.92L2472.57 339.392C2470.59 331.776 2467.52 321.536 2463.87 313.152C2460.86 306.432 2457.98 300.224 2455.8 296.576C2455.04 295.296 2453.76 293.248 2452.73 291.968L2457.92 289.856ZM2446.59 308.544C2448.44 308.096 2450.68 307.328 2451.84 306.816C2460.73 303.424 2476.28 294.72 2486.91 294.72C2495.8 294.72 2501.18 299.712 2501.18 306.688C2501.18 314.112 2496.51 319.68 2486.52 319.68C2482.94 319.68 2479.29 318.784 2476.92 317.888L2477.05 312.832C2479.55 313.984 2482.75 314.944 2486.14 314.944C2493.18 314.944 2496.06 311.04 2496.06 306.496C2496.06 302.72 2493.05 299.2 2486.78 299.2C2476.09 299.2 2457.15 310.272 2449.08 313.792L2446.59 308.544ZM2522.43 290.496C2522.17 291.392 2521.85 292.48 2521.6 293.504C2520.76 297.664 2519.48 307.392 2519.87 312.384C2524.09 301.376 2534.65 294.016 2545.79 294.016C2557.76 294.016 2564.8 301.504 2564.8 311.04C2564.8 321.472 2558.33 329.6 2545.15 329.6C2537.79 329.6 2531 325.504 2527.48 318.336L2530.56 314.752C2533.5 321.024 2538.11 324.736 2545.21 324.736C2554.11 324.736 2559.93 319.616 2559.93 311.168C2559.93 304.192 2555.39 298.304 2545.66 298.304C2532.22 298.304 2523.52 309.376 2521.34 318.528C2521.08 319.68 2520.83 321.088 2520.89 322.496C2521.02 323.84 2521.4 326.848 2521.79 328.512L2517.31 329.216C2516.16 325.12 2515.2 318.656 2515.2 312.576C2515.2 305.408 2516.54 296.576 2516.86 292.992C2516.99 291.904 2517.05 290.88 2516.99 290.112L2522.43 290.496ZM2544.51 285.248C2545.47 289.792 2546.75 299.264 2546.75 308.672C2546.75 321.984 2544.06 333.376 2533.82 340.096L2529.15 337.28C2539.13 331.84 2541.95 321.216 2541.95 308.736C2541.95 300.48 2540.99 292.736 2540.28 289.344C2539.96 288 2539.58 286.336 2539.2 285.44L2544.51 285.248ZM2605.44 285.76C2605.18 287.168 2604.99 290.24 2604.92 292.16C2604.92 295.04 2604.92 299.456 2604.92 303.872C2604.92 310.848 2605.95 323.648 2605.95 329.28C2605.95 334.464 2602.75 338.944 2594.24 338.944C2585.34 338.944 2578.88 336.192 2578.88 328.896C2578.88 323.072 2583.87 318.4 2594.94 318.4C2607.61 318.4 2619 324.8 2625.53 330.752L2622.46 335.552C2616.06 329.152 2605.56 322.88 2594.36 322.88C2587.71 322.88 2583.93 325.12 2583.93 328.704C2583.93 332.224 2587.52 334.208 2593.72 334.208C2598.4 334.208 2600.7 331.968 2600.7 327.552C2600.7 322.816 2599.93 310.4 2599.93 303.872C2599.93 300.16 2599.87 294.912 2599.87 292.16C2599.8 289.792 2599.61 286.976 2599.36 285.76H2605.44ZM2602.11 298.688C2606.52 298.688 2616.96 298.368 2623.87 297.536L2624.06 302.336C2617.15 302.976 2606.72 303.424 2602.11 303.424V298.688ZM2656.19 285.824C2661.69 287.616 2675.32 290.24 2681.02 290.816L2679.8 295.68C2673.66 294.848 2659.84 292.032 2654.91 290.752L2656.19 285.824ZM2654.78 297.536C2653.95 301.888 2652.8 311.36 2652.16 315.52C2658.3 310.144 2665.34 307.648 2673.02 307.648C2682.81 307.648 2689.34 313.536 2689.34 321.088C2689.34 332.48 2679.16 340.224 2655.42 338.24L2653.88 333.056C2674.11 335.488 2683.96 329.664 2683.96 320.896C2683.96 315.84 2679.16 312.192 2672.64 312.192C2664.25 312.192 2657.34 315.328 2652.86 320.768C2651.9 321.856 2651.32 322.88 2650.94 323.904L2646.14 322.752C2647.42 316.928 2649.02 303.488 2649.4 296.832L2654.78 297.536ZM2720.44 285.504C2719.1 290.24 2717.88 298.88 2717.5 303.36C2720.12 296.768 2726.78 288.768 2734.91 288.768C2743.36 288.768 2749.5 297.344 2749.5 310.784C2749.5 328.512 2738.3 336.384 2722.49 339.264L2719.42 334.656C2733.37 332.544 2744.19 326.912 2744.19 310.848C2744.19 300.736 2740.8 293.44 2734.08 293.44C2726.08 293.44 2718.65 305.088 2717.88 313.472C2717.56 315.904 2717.56 318.144 2718.01 321.344L2713.02 321.728C2712.7 319.296 2712.38 315.712 2712.38 311.552C2712.38 305.472 2713.6 296.064 2714.36 290.816C2714.62 288.896 2714.75 287.104 2714.88 285.312L2720.44 285.504ZM2778.04 288.896C2779.45 289.024 2781.24 289.088 2782.52 289.088C2785.92 289.088 2801.08 288.64 2804.48 288.32C2806.4 288.128 2807.29 288 2808 287.744L2810.94 291.52C2809.79 292.288 2808.51 293.12 2807.29 294.08C2804.16 296.512 2795.45 304 2790.46 308.096C2793.4 307.136 2796.48 306.816 2799.36 306.816C2809.98 306.816 2817.6 313.152 2817.6 321.792C2817.6 332.096 2809.08 338.816 2795.52 338.816C2786.81 338.816 2781.5 335.04 2781.5 329.664C2781.5 325.312 2785.47 321.344 2791.36 321.344C2799.87 321.344 2804.16 327.36 2804.6 333.824L2800 334.592C2799.61 329.152 2796.48 325.248 2791.36 325.248C2788.41 325.248 2786.17 327.04 2786.17 329.28C2786.17 332.416 2789.69 334.272 2794.75 334.272C2805.63 334.272 2812.48 329.792 2812.48 321.792C2812.48 315.456 2806.46 310.784 2798.08 310.784C2787.45 310.784 2781.69 315.264 2773.63 323.52L2769.92 319.808C2775.23 315.456 2783.48 308.544 2787.13 305.408C2790.72 302.464 2798.78 295.744 2801.98 292.864C2798.59 293.056 2785.79 293.568 2782.46 293.76C2780.99 293.888 2779.58 293.952 2778.17 294.144L2778.04 288.896ZM2889.15 331.136C2885.69 334.592 2881.72 336.512 2877.37 336.512C2873.08 336.512 2870.27 333.696 2870.27 328.448C2870.27 321.28 2872.64 310.784 2872.64 304.576C2872.64 300.864 2870.78 299.264 2867.52 299.264C2861.5 299.264 2852.22 307.2 2846.2 314.496L2846.27 308.16C2850.24 303.808 2860.86 294.592 2868.73 294.592C2874.75 294.592 2877.69 297.984 2877.69 303.168C2877.69 309.568 2875.26 320.576 2875.26 327.04C2875.26 329.216 2876.35 330.944 2878.65 330.944C2881.66 330.944 2885.05 329.088 2888.32 325.696L2889.15 331.136ZM2846.14 300.544C2844.03 300.864 2837.12 301.696 2832.38 302.464L2831.8 297.152C2833.21 297.216 2834.43 297.216 2836.03 297.088C2839.42 296.896 2847.42 295.936 2850.36 294.976L2852.22 297.152C2851.13 298.816 2849.4 301.568 2848.32 303.36L2846.4 312.128C2843.45 316.672 2837.5 325.312 2833.47 330.88L2830.27 326.528C2834.24 321.536 2842.88 309.824 2845.37 305.6L2845.63 302.272L2846.14 300.544ZM2845.5 289.984C2845.5 288.512 2845.56 286.848 2845.24 285.248L2851.26 285.44C2850.36 289.6 2848.44 307.904 2848.44 319.168C2848.44 324.992 2848.44 328.896 2848.7 334.592C2848.76 335.68 2848.96 337.28 2849.02 338.496H2843.52C2843.64 337.28 2843.71 335.744 2843.71 334.72C2843.71 328.512 2843.77 325.312 2843.84 318.272C2843.96 312.64 2845.5 292.352 2845.5 289.984ZM2905.66 289.344C2906.81 289.472 2908.35 289.536 2910.14 289.536C2913.47 289.536 2928.12 289.152 2932.16 288.896C2933.24 288.832 2934.78 288.576 2935.74 288.32L2938.75 292.096C2937.92 292.48 2936.64 293.44 2935.93 293.888C2931.2 297.856 2923.58 304.192 2918.27 308.48C2921.72 307.2 2924.86 306.816 2927.42 306.816C2937.98 306.816 2945.28 312.768 2945.28 321.472C2945.28 333.696 2933.24 340.288 2912 338.624L2910.59 333.376C2928.32 335.552 2939.96 330.88 2939.96 321.408C2939.96 315.264 2934.72 311.04 2926.46 311.04C2915.45 311.04 2909.63 316.672 2901.56 324.288L2897.66 320.32C2907.07 313.024 2923.9 298.88 2929.4 293.376C2925.44 293.568 2913.47 294.016 2910.27 294.208C2908.86 294.336 2907.07 294.528 2905.79 294.656L2905.66 289.344ZM2988.6 331.456C2999.42 329.856 3009.15 324.864 3009.08 313.856C3009.08 308.928 3005.18 302.4 2996.67 302.4C2988.48 302.4 2981.12 306.944 2974.91 313.408V307.712C2982.59 300.48 2990.72 297.792 2997.44 297.792C3006.33 297.792 3014.2 304 3014.2 313.92C3014.27 326.848 3004.86 333.568 2990.91 336.256L2988.6 331.456ZM2974.14 300.608C2972.09 300.864 2965.12 301.76 2960.38 302.464L2959.8 297.152C2961.21 297.216 2962.43 297.216 2964.03 297.088C2967.42 296.896 2975.36 295.936 2978.36 294.976L2980.22 297.152C2979.13 298.816 2977.4 301.568 2976.32 303.36L2974.4 312.128C2971.45 316.672 2965.5 325.312 2961.47 330.88L2958.27 326.528C2962.24 321.536 2970.88 309.76 2973.37 305.536L2973.63 302.272L2974.14 300.608ZM2973.5 289.984C2973.5 288.512 2973.56 286.848 2973.24 285.248L2979.32 285.44C2978.43 289.6 2976.44 307.904 2976.44 319.168C2976.44 324.992 2976.44 328.896 2976.7 334.592C2976.76 335.68 2976.96 337.28 2977.02 338.496H2971.52C2971.58 337.6 2971.71 335.744 2971.71 334.72C2971.71 328.512 2971.77 325.312 2971.84 318.272C2971.96 312.64 2973.5 292.352 2973.5 289.984ZM3048.25 285.44C3047.68 287.936 3046.97 291.456 3045.31 295.744C3043.71 299.648 3041.34 303.936 3038.78 307.264C3041.28 305.792 3044.92 304.896 3047.74 304.896C3052.67 304.896 3056.51 307.84 3056.51 313.024C3056.51 316.352 3056.64 323.712 3056.7 327.68H3051.77C3052.03 324.288 3052.09 317.696 3052.03 314.368C3051.96 310.656 3049.4 308.928 3046.08 308.928C3041.98 308.928 3037.95 310.976 3035 313.6C3033.15 315.392 3031.36 317.696 3029.24 320.32L3024.83 317.056C3034.04 308.224 3038.33 300.8 3040.51 295.36C3041.92 291.84 3042.81 288 3043 284.992L3048.25 285.44ZM3026.3 292.352C3029.76 292.8 3034.17 292.992 3037.12 292.992C3045.76 292.992 3056.83 292.48 3065.85 290.88V295.616C3056.89 296.96 3044.99 297.536 3036.86 297.536C3034.11 297.536 3029.88 297.408 3026.3 297.152V292.352ZM3075.2 307.776C3073.6 308.288 3071.29 309.184 3069.56 309.824C3065.02 311.616 3058.94 314.048 3052.73 317.248C3046.4 320.576 3041.92 324.032 3041.92 328.448C3041.92 333.44 3046.84 334.208 3053.44 334.208C3058.43 334.208 3065.34 333.632 3070.97 332.608L3070.78 337.792C3065.92 338.368 3058.81 338.88 3053.24 338.88C3044.16 338.88 3036.8 336.896 3036.8 329.152C3036.8 321.344 3044.73 316.544 3052.35 312.64C3058.43 309.504 3063.61 307.52 3067.84 305.536C3069.76 304.64 3071.36 303.936 3073.15 303.04L3075.2 307.776ZM3117.82 288.512C3117.24 289.28 3116.48 290.432 3115.77 291.648C3112.89 296.064 3107 306.688 3103.74 312.896C3106.81 310.144 3110.14 308.928 3113.21 308.928C3117.5 308.928 3120.57 311.68 3120.76 316.736C3120.89 320.512 3120.76 325.376 3121.02 328.512C3121.21 331.712 3123.39 333.12 3126.14 333.12C3133.31 333.12 3137.53 324.288 3139.13 317.44L3143.42 320.896C3140.03 331.2 3134.65 338.368 3125.37 338.368C3118.52 338.368 3116.28 334.08 3116.09 330.304C3115.9 326.528 3115.96 321.6 3115.77 318.08C3115.64 315.328 3113.98 313.6 3111.1 313.6C3105.98 313.6 3101.12 318.848 3098.68 323.904C3096.7 327.68 3094.01 335.296 3093.12 338.432L3087.61 336.512C3092.28 323.584 3106.3 297.344 3109.82 291.2C3110.52 289.664 3111.36 288.128 3112.12 286.208L3117.82 288.512ZM265.584 446.8C265.072 447.376 264.304 448.336 263.856 449.04C261.296 453.392 255.216 461.648 247.92 466.704L243.632 463.312C249.584 459.92 255.6 453.008 257.648 449.04C253.168 449.04 224.24 449.04 221.168 449.04C218.8 449.04 216.432 449.168 213.936 449.36V443.6C216.176 443.92 218.8 444.176 221.168 444.176C224.24 444.176 254.128 444.176 257.968 444.176C259.184 444.176 261.488 443.984 262.384 443.728L265.584 446.8ZM239.984 455.184C239.984 472.528 238.448 484.24 222.128 492.432L217.456 488.592C219.184 488.016 221.424 486.928 223.216 485.712C233.072 479.632 234.48 470.544 234.48 459.856C234.48 458.32 234.48 456.912 234.224 455.184H239.984ZM272.317 466.896C283.389 463.952 293.117 459.408 300.221 454.992C306.941 450.768 313.341 445.264 317.757 439.888L322.045 443.92C316.541 449.616 309.821 454.992 302.333 459.664C295.293 464.016 285.117 468.688 274.812 471.888L272.317 466.896ZM299.197 457.616L304.701 455.952V485.2C304.701 487.568 304.829 490.768 305.149 491.984H298.812C299.005 490.768 299.197 487.568 299.197 485.2V457.616ZM365.373 438.8C365.117 440.784 365.053 442.256 365.053 443.6C365.053 445.072 365.053 449.872 365.053 452.112H359.613C359.613 449.616 359.613 445.072 359.613 443.6C359.613 442.256 359.549 440.784 359.293 438.8H365.373ZM387.197 451.216C386.877 452.112 386.493 453.84 386.301 455.056C385.405 460.176 383.549 468.176 379.965 474.256C375.229 482.64 366.397 489.168 354.685 492.368L350.525 487.632C352.637 487.248 355.069 486.608 357.117 485.84C363.581 483.728 370.557 478.992 374.525 472.912C377.981 467.472 379.965 459.728 380.541 454.288H344.829C344.829 456.912 344.829 463.76 344.829 465.744C344.829 466.832 344.893 468.56 345.021 469.52H339.453C339.645 468.432 339.709 466.704 339.709 465.424C339.709 463.376 339.709 456.4 339.709 454.16C339.709 452.816 339.709 450.64 339.453 449.296C341.309 449.424 343.229 449.552 345.469 449.552H379.389C381.757 449.552 382.909 449.296 383.741 449.04L387.197 451.216ZM404.093 447.248C405.757 447.44 408.125 447.568 409.469 447.568H444.605C446.589 447.568 448.573 447.44 450.109 447.248V452.816C448.509 452.688 446.461 452.56 444.605 452.56H409.469C408.189 452.56 405.693 452.688 404.093 452.816V447.248ZM423.869 484.816V450.448H429.309V484.816H423.869ZM400.189 481.68C402.045 481.936 404.029 482.064 405.821 482.064H448.125C450.045 482.064 451.773 481.808 453.373 481.68V487.44C451.709 487.248 449.341 487.248 448.125 487.248H405.821C404.093 487.248 402.109 487.312 400.189 487.44V481.68ZM500.989 439.952C500.733 441.68 500.605 443.536 500.669 445.264C500.733 452.368 501.181 474.704 501.245 486.672C501.309 490.064 499.261 491.856 495.421 491.856C492.157 491.856 488.381 491.664 485.181 491.472L484.733 486.16C487.805 486.672 491.389 486.928 493.821 486.928C495.613 486.928 496.189 486.096 496.189 484.368C496.189 475.216 495.933 452.368 495.613 445.264C495.485 442.832 495.357 441.296 495.101 439.952H500.989ZM466.621 451.152C468.477 451.344 470.589 451.472 472.509 451.472C475.901 451.472 507.581 451.472 510.845 451.472C512.509 451.472 515.005 451.28 516.285 451.088V456.528C514.749 456.464 512.573 456.336 510.973 456.336C508.157 456.336 475.517 456.336 472.637 456.336C470.461 456.336 468.669 456.464 466.621 456.592V451.152ZM464.317 481.04C477.821 474.384 489.661 463.184 494.397 455.376H496.957L497.021 459.664C492.157 467.28 480.253 478.672 467.965 485.2L464.317 481.04ZM555.261 439.696C555.132 441.168 555.005 443.344 554.941 444.88C554.109 470.992 547.069 482.96 534.461 491.728L529.789 487.952C531.837 486.864 534.397 485.072 536.317 483.28C544.317 476.048 549.565 465.232 549.693 445.008C549.693 443.536 549.565 441.168 549.309 439.696H555.261ZM577.533 453.008C577.341 454.096 577.213 455.248 577.149 456.08C576.957 462.288 576.125 480.848 573.245 486.992C571.965 489.744 569.917 490.896 566.397 490.896C563.197 490.896 559.485 490.704 556.157 490.448L555.517 485.136C558.972 485.584 562.301 485.904 565.053 485.904C566.845 485.904 568.061 485.328 568.765 483.792C571.197 478.864 572.029 463.12 572.029 456.272H538.301C535.741 456.272 533.181 456.336 530.877 456.528V451.152C533.117 451.344 535.741 451.472 538.237 451.472H569.853C571.581 451.472 572.797 451.344 573.885 451.152L577.533 453.008ZM611.837 444.752C611.517 443.152 611.133 441.744 610.685 440.4L616.381 439.44C616.509 440.592 616.765 442.448 617.021 443.856C617.405 446.672 624.444 481.808 625.341 486.032C625.789 487.824 626.301 490 626.941 491.856L621.053 492.944C620.733 490.768 620.541 488.784 620.093 486.928C619.453 482.896 612.605 448.08 611.837 444.752ZM593.789 454.032C595.389 453.904 597.117 453.776 599.165 453.584C604.925 452.944 627.005 449.424 633.085 448.208C634.941 447.888 636.605 447.504 637.693 447.184L638.717 452.56C637.757 452.624 635.837 452.944 634.109 453.2C627.517 454.224 605.693 457.68 600.061 458.64C598.333 458.96 596.797 459.28 594.941 459.728L593.789 454.032ZM593.597 472.464C595.133 472.4 597.565 472.144 599.229 471.888C606.077 470.992 629.885 467.088 637.565 465.68C639.997 465.232 641.853 464.784 643.197 464.4L644.285 469.776C642.941 469.904 640.893 470.288 638.525 470.672C630.013 471.952 606.909 475.728 600.445 476.88C597.949 477.328 596.157 477.712 594.749 478.096L593.597 472.464ZM706.557 450C706.045 450.896 705.405 452.368 705.085 453.392C703.357 459.856 699.453 468.496 693.757 475.472C687.933 482.576 680.253 488.4 668.285 492.88L663.613 488.656C675.389 485.2 683.325 479.44 689.213 472.592C694.141 466.768 698.109 458.448 699.389 452.624H675.709L677.757 448.016C680.317 448.016 696.125 448.016 698.109 448.016C699.837 448.016 701.309 447.824 702.333 447.44L706.557 450ZM685.117 440.336C684.093 442 682.941 444.176 682.301 445.328C678.525 452.432 671.869 461.584 661.565 468.368L657.085 465.104C668.157 458.512 674.429 449.168 677.245 443.472C677.885 442.32 678.845 440.016 679.229 438.352L685.117 440.336ZM741.181 440.528C740.605 442 740.029 443.728 739.517 445.072C738.557 447.952 737.085 451.856 735.293 455.376C732.797 460.368 728.061 466.832 724.093 470.224L719.036 467.152C723.645 463.888 728.189 457.296 730.429 453.392C732.157 450.192 733.309 446.928 734.013 444.432C734.525 442.832 734.845 441.04 734.973 439.376L741.181 440.528ZM733.117 451.536C737.149 451.536 764.157 451.536 767.357 451.536C768.893 451.536 771.453 451.472 773.309 451.152V456.656C771.325 456.528 768.829 456.528 767.357 456.528C764.093 456.528 737.149 456.528 732.477 456.528L733.117 451.536ZM756.605 454.224C756.029 473.936 748.733 485.264 737.277 492.496L731.837 488.848C733.693 488.144 735.613 486.992 737.021 485.84C743.613 480.912 750.845 471.952 751.229 454.224H756.605ZM789.757 446.16C791.933 446.352 794.685 446.544 796.797 446.544H828.285C829.885 446.544 831.741 446.48 833.021 446.416C832.957 447.824 832.893 449.872 832.893 451.344V484.432C832.893 486.736 833.085 489.616 833.149 490.576H827.389C827.389 489.616 827.517 487.248 827.517 484.944V451.6H796.797C794.429 451.6 791.293 451.728 789.757 451.856V446.16ZM788.989 481.488C790.589 481.616 793.405 481.808 796.029 481.808H830.397V487.056H796.221C793.597 487.056 790.717 487.12 788.989 487.312V481.488ZM888.893 460.624C888.893 477.648 885.181 486.416 870.589 493.008L866.301 488.912C877.949 484.496 883.709 478.992 883.709 461.008V445.456C883.709 442.96 883.517 440.848 883.389 440.272H889.213C889.149 440.912 888.893 442.96 888.893 445.456V460.624ZM865.789 440.656C865.725 441.232 865.533 443.088 865.533 445.264V468.752C865.533 471.12 865.725 473.936 865.789 474.512H860.093C860.157 473.936 860.413 471.184 860.413 468.752V445.264C860.413 443.92 860.285 442.128 860.093 440.656H865.789ZM847.101 453.072C847.677 453.136 850.812 453.52 853.501 453.52H895.869C898.749 453.52 900.861 453.264 901.757 453.136V458.576C901.053 458.512 898.749 458.384 895.933 458.384H853.501C850.685 458.384 847.805 458.576 847.101 458.576V453.072ZM926.013 440.848C929.789 442.96 937.149 447.888 939.965 449.936L936.957 454.288C933.885 451.92 926.909 447.312 923.197 445.2L926.013 440.848ZM916.413 486.608C923.453 485.392 931.389 482.832 937.917 479.184C948.541 473.104 956.989 464.72 962.109 455.696L965.245 461.008C959.677 469.584 950.845 477.84 940.604 483.856C934.141 487.632 925.309 490.576 919.421 491.792L916.413 486.608ZM916.413 455.248C920.189 457.296 927.677 461.904 930.429 463.888L927.485 468.368C924.349 466.064 917.437 461.648 913.533 459.6L916.413 455.248ZM1021.95 447.248C1021.56 447.76 1020.73 449.168 1020.41 450C1017.85 456.336 1012.99 465.296 1007.68 471.184C1000.51 479.184 991.357 486.8 981.245 491.408L977.149 487.12C987.517 483.152 996.925 475.472 1003.52 468.176C1007.87 463.248 1012.54 455.632 1014.2 450.32C1011.9 450.32 991.421 450.32 989.245 450.32C986.941 450.32 983.485 450.576 982.781 450.64V444.88C983.613 445.008 987.26 445.264 989.245 445.264C991.741 445.264 1011.52 445.264 1013.95 445.264C1016 445.264 1017.72 445.072 1018.75 444.752L1021.95 447.248ZM1008.51 467.856C1015.42 473.616 1023.93 482.576 1028.28 487.888L1023.87 491.792C1019.26 485.712 1011.77 477.52 1004.86 471.44L1008.51 467.856ZM1054.33 481.808C1054.33 475.92 1054.33 453.264 1054.33 446.48C1054.33 444.56 1054.27 442.448 1053.95 440.592H1059.96C1059.71 442.448 1059.52 444.624 1059.52 446.48C1059.52 453.2 1059.52 474.128 1059.52 480.464C1059.52 484.88 1061.18 486.288 1068.8 486.288C1076.22 486.288 1082.43 485.648 1088.76 484.368L1088.57 489.872C1082.88 490.704 1076.48 491.216 1068.48 491.216C1056.57 491.216 1054.33 488.08 1054.33 481.808ZM1091.52 453.2C1091 453.904 1090.36 454.992 1089.92 455.76C1086.97 461.072 1081.98 469.136 1076.8 474.384L1072.38 471.76C1077.18 467.344 1081.85 460.304 1083.77 456.528C1081.79 456.912 1047.29 463.824 1039.61 465.488L1038.59 460.112C1046.78 459.152 1079.48 452.56 1084.35 451.408C1085.69 451.088 1086.97 450.704 1087.74 450.256L1091.52 453.2ZM1115.71 487.696C1126.33 483.408 1133.5 476.496 1138.3 469.328C1143.23 462.032 1145.21 454.416 1146.3 448.464C1146.62 446.8 1146.81 444.432 1146.81 443.28L1153.15 444.112C1152.64 445.84 1152.12 448.016 1151.93 449.168C1150.4 456.784 1147.84 464.848 1143.16 472.016C1138.11 479.76 1130.94 486.928 1120.44 491.792L1115.71 487.696ZM1111.74 444.048C1114.62 448.208 1120.25 458.064 1122.49 462.224L1117.44 465.104C1114.68 459.344 1109.37 450.256 1106.75 446.608L1111.74 444.048ZM1189.37 460.688C1197.56 465.488 1208.06 472.848 1214.4 477.968L1210.62 482.448C1204.73 477.072 1193.79 469.2 1185.85 464.272L1189.37 460.688ZM1218.62 449.04C1218.11 449.936 1217.47 451.408 1217.15 452.432C1215.23 458.96 1211.2 467.472 1205.56 474.384C1199.74 481.552 1191.42 488.4 1179.26 492.88L1174.72 488.848C1186.62 485.264 1195.32 478.48 1201.08 471.632C1206.01 465.744 1210.04 457.616 1211.52 451.664H1187.84L1189.88 447.056H1210.24C1211.96 447.056 1213.37 446.864 1214.4 446.48L1218.62 449.04ZM1197.05 439.76C1195.96 441.424 1194.81 443.6 1194.17 444.816C1190.4 451.856 1183.16 461.52 1172.92 468.56L1168.7 465.296C1179.64 458.448 1186.24 448.848 1189.18 442.96C1189.82 441.872 1190.84 439.568 1191.23 437.904L1197.05 439.76ZM1237.44 445.52C1242.24 445.776 1251.96 445.52 1258.94 444.56C1264.76 443.792 1272.25 442.256 1275.39 440.848L1278.78 445.328C1277.37 445.712 1276.16 446.032 1275.2 446.288C1271.48 447.184 1265.53 448.336 1260.41 449.04C1253.24 450 1244.41 450.192 1238.72 450.32L1237.44 445.52ZM1241.02 489.168C1251.9 484.048 1257.34 476.048 1257.34 462.864C1257.34 462.864 1257.34 457.104 1257.34 448.336L1262.46 447.632C1262.46 452.624 1262.46 462.736 1262.46 462.736C1262.46 476.368 1257.98 485.776 1246.01 492.624L1241.02 489.168ZM1232.44 460.752C1233.85 460.88 1236.09 461.072 1238.08 461.072C1242.17 461.072 1276.22 461.072 1280.19 461.072C1281.53 461.072 1283.9 460.944 1285.24 460.816V466.064C1283.84 465.936 1281.85 465.872 1280.25 465.872C1276.41 465.872 1242.11 465.872 1238.14 465.872C1236.09 465.872 1233.98 465.936 1232.44 466.064V460.752ZM1319.93 441.936C1321.34 444.944 1325.24 455.12 1326.33 458.704L1321.34 460.432C1320.25 456.784 1316.67 446.928 1315.07 443.536L1319.93 441.936ZM1348.41 446.032C1347.96 447.056 1347.52 448.656 1347.26 449.616C1345.28 457.616 1341.88 466.704 1336.57 473.616C1329.98 482.32 1320.57 488.912 1311.48 492.112L1307.13 487.696C1316.22 485.008 1325.76 478.864 1332.22 470.672C1337.28 464.208 1341.24 453.968 1342.46 444.304L1348.41 446.032ZM1302.08 445.776C1303.8 449.36 1307.77 459.088 1309.31 463.312L1304.19 465.168C1302.97 461.2 1298.56 450.384 1297.08 447.568L1302.08 445.776ZM1368.51 442.704C1370.36 442.896 1372.22 443.024 1374.33 443.024C1378.04 443.024 1396.67 443.024 1400.25 443.024C1402.04 443.024 1404.35 442.896 1406.2 442.704V448.016C1404.28 447.888 1402.04 447.76 1400.25 447.76C1396.67 447.76 1378.04 447.76 1374.4 447.76C1372.28 447.76 1370.17 447.888 1368.51 448.016V442.704ZM1360.89 458.768C1362.62 458.96 1364.48 459.024 1366.46 459.024C1370.17 459.024 1404.92 459.024 1408.32 459.024C1409.66 459.024 1411.77 458.96 1413.37 458.768V464.016C1411.9 463.952 1409.92 463.888 1408.32 463.888C1404.92 463.888 1370.17 463.888 1366.46 463.888C1364.54 463.888 1362.62 463.952 1360.89 464.08V458.768ZM1391.04 461.328C1391.04 469.392 1390.01 476.048 1387.13 481.424C1384.83 485.712 1379.96 490.256 1374.59 493.072L1369.85 489.616C1374.78 487.504 1379.39 483.856 1381.88 479.76C1385.08 474.704 1385.6 468.432 1385.66 461.392L1391.04 461.328ZM1440.32 484.368C1440.32 480.784 1440.32 452.496 1440.32 447.184C1440.32 445.328 1440.19 442.512 1439.87 440.464H1446.14C1445.88 442.448 1445.69 445.2 1445.69 447.184C1445.69 457.104 1445.76 481.36 1445.76 484.368C1445.76 486.416 1445.88 489.872 1446.14 491.984H1439.93C1440.25 489.936 1440.32 486.736 1440.32 484.368ZM1444.54 457.296C1452.99 459.728 1465.92 464.656 1473.02 468.112L1470.78 473.552C1463.48 469.648 1451.52 465.104 1444.54 462.928V457.296ZM1513.85 446.864C1513.85 444.88 1513.6 441.808 1513.21 440.464H1519.61C1519.42 441.808 1519.16 445.008 1519.16 446.864C1519.16 450.512 1519.16 456.464 1519.16 460.368C1519.16 474.512 1514.49 484.944 1501.44 492.432L1496.44 488.784C1508.6 483.024 1513.85 473.552 1513.85 460.368C1513.85 456.528 1513.85 450.512 1513.85 446.864ZM1489.02 455.12C1490.3 455.312 1492.67 455.44 1494.97 455.44C1498.11 455.44 1533.12 455.44 1536.19 455.44C1538.36 455.44 1540.8 455.312 1541.76 455.184V460.624C1540.8 460.56 1538.11 460.496 1536.12 460.496C1533.12 460.496 1498.11 460.496 1495.1 460.496C1492.67 460.496 1490.36 460.56 1489.02 460.688V455.12ZM1558.2 448.336C1560.25 448.528 1562.36 448.656 1564.48 448.656C1568.51 448.656 1588.67 448.656 1591.93 448.656C1594.24 448.656 1596.48 448.528 1598.2 448.336V454.096C1596.48 454.032 1594.04 453.968 1591.93 453.968C1588.73 453.968 1567.61 453.968 1564.48 453.968C1562.3 453.968 1560.12 454.032 1558.2 454.096V448.336ZM1552.7 480.08C1554.88 480.208 1557.05 480.4 1559.42 480.4C1563.07 480.4 1594.04 480.4 1597.76 480.4C1599.61 480.4 1601.72 480.272 1603.58 480.08V486.224C1601.66 486.032 1599.42 485.904 1597.76 485.904C1594.04 485.904 1563.07 485.904 1559.42 485.904C1557.05 485.904 1554.81 486.032 1552.7 486.224V480.08ZM1663.1 447.632C1662.59 448.528 1661.95 449.744 1661.5 451.152C1658.81 460.112 1654.4 468.56 1649.72 474.448C1642.81 483.024 1632.96 489.552 1623.61 493.008L1619.13 488.528C1629.82 485.328 1639.23 478.608 1645.44 471.184C1650.49 465.168 1654.27 457.04 1655.8 450.384C1652.28 450.384 1633.79 450.384 1629.44 450.384C1627.13 450.384 1624.38 450.448 1622.65 450.576V445.072C1624.38 445.264 1627 445.392 1629.44 445.392C1633.79 445.392 1653.05 445.392 1655.87 445.392C1657.21 445.392 1658.43 445.2 1659.39 444.752L1663.1 447.632ZM1629.12 458.832C1640.89 465.04 1655.42 475.728 1663.55 482.896L1659.84 487.312C1651.77 479.696 1637.37 468.816 1625.92 462.736L1629.12 458.832ZM1710.14 438.8C1709.88 440.144 1709.76 442.64 1709.76 444.368C1709.76 446.096 1709.76 449.424 1709.76 450.704H1704.64C1704.64 449.424 1704.64 446.224 1704.64 444.368C1704.64 442.576 1704.57 440.208 1704.32 438.8H1710.14ZM1727.74 451.344C1726.59 452.496 1725.18 453.968 1724.16 455.184C1720.83 459.088 1715.32 464.592 1709.24 468.752C1702.27 473.616 1693.88 477.328 1682.94 480.656L1679.8 475.92C1691.96 472.976 1699.96 468.816 1705.72 465.04C1711.48 461.328 1716.54 456.336 1718.78 453.328C1715.77 453.328 1695.04 453.328 1692.16 453.328C1689.98 453.328 1686.27 453.392 1684.35 453.584V448.144C1686.4 448.4 1689.92 448.528 1692.09 448.528C1695.04 448.528 1716.48 448.528 1720.32 448.528C1721.85 448.528 1723.32 448.4 1724.35 448.08L1727.74 451.344ZM1709.63 466.128C1709.63 471.056 1709.63 480.72 1709.63 485.648C1709.63 487.888 1709.76 490.768 1709.95 492.752H1704.12C1704.32 490.832 1704.51 487.888 1704.51 485.648C1704.51 480.848 1704.51 472.4 1704.51 468.304L1709.63 466.128ZM1730.68 481.424C1725.12 477.328 1721.28 474.768 1715.32 471.568L1718.65 467.856C1724.67 471.056 1728.12 473.104 1734.08 477.072L1730.68 481.424ZM1790.08 443.984C1789.37 445.712 1788.6 448.016 1788.03 449.616C1785.6 456.528 1781.76 465.936 1776.32 472.848C1770.56 480.208 1761.4 487.312 1752.19 491.088L1747.71 486.48C1757.31 483.152 1766.14 476.688 1771.96 469.456C1777.85 462.032 1782.2 451.536 1784 442.384L1790.08 443.984ZM1817.47 469.776C1820.22 463.12 1822.91 453.392 1823.74 446.032L1829.44 447.184C1829.05 448.592 1828.6 450.448 1828.28 451.856C1827.45 455.824 1825.15 465.296 1822.46 471.888C1820.16 477.712 1816.64 484.304 1813.05 489.424L1807.61 487.12C1811.64 481.808 1815.23 475.088 1817.47 469.776ZM1848.96 467.28C1846.4 460.688 1842.49 451.792 1839.68 447.056L1844.86 445.328C1847.42 449.936 1851.52 458.768 1854.2 465.552C1856.83 471.888 1860.22 481.68 1861.88 487.504L1856.25 489.296C1854.59 482.768 1851.64 474.128 1848.96 467.28ZM1887.16 440.784C1886.97 442.32 1886.84 444.176 1886.84 445.968C1886.84 449.424 1886.84 475.152 1886.84 479.76C1886.84 483.088 1888.19 483.92 1891.32 484.496C1893.31 484.88 1896.64 485.072 1899.77 485.072C1906.56 485.072 1916.35 484.368 1921.66 482.96V488.848C1916.09 489.68 1906.49 490.128 1899.52 490.128C1895.74 490.128 1891.9 490 1889.28 489.552C1884.35 488.656 1881.6 486.416 1881.6 481.168C1881.6 475.024 1881.6 449.424 1881.6 445.968C1881.6 444.24 1881.47 442.064 1881.21 440.784H1887.16ZM1884.48 461.008C1892.16 459.344 1904.51 455.568 1911.87 452.368C1913.85 451.536 1915.71 450.64 1917.5 449.488L1919.8 454.608C1917.95 455.376 1915.64 456.4 1913.72 457.104C1905.79 460.368 1892.41 464.336 1884.48 466.32V461.008ZM1985.92 447.504C1985.47 448.4 1985.21 449.424 1984.96 450.704C1983.55 457.424 1980.48 467.728 1975.36 474.32C1969.53 481.808 1961.92 487.76 1950.2 491.408L1945.85 486.608C1958.27 483.536 1965.44 478.096 1970.81 471.248C1975.36 465.424 1978.3 456.528 1979.2 450.384C1975.48 450.384 1950.14 450.384 1946.43 450.384C1943.87 450.384 1941.69 450.512 1940.09 450.576V444.88C1941.82 445.136 1944.38 445.328 1946.49 445.328C1950.14 445.328 1975.68 445.328 1978.56 445.328C1979.52 445.328 1980.8 445.264 1982.01 445.008L1985.92 447.504ZM1998.72 472.016C2000.38 470.608 2001.6 469.456 2003.26 467.728C2006.33 464.656 2011.9 457.552 2015.93 452.816C2019.32 448.784 2022.33 448.08 2026.68 452.176C2030.59 455.888 2036.09 461.648 2039.8 465.616C2044.16 470.16 2050.49 477.136 2055.42 482.384L2051.07 487.056C2046.52 481.552 2040.89 475.024 2036.73 470.352C2033.02 466.128 2027.13 459.792 2024.38 457.168C2021.95 454.8 2020.73 454.992 2018.56 457.616C2015.48 461.392 2010.11 468.368 2007.23 471.952C2005.88 473.552 2004.48 475.536 2003.52 476.88L1998.72 472.016ZM2094.72 439.824C2094.59 440.72 2094.33 443.024 2094.33 444.432C2094.33 447.824 2094.33 453.2 2094.33 456.272C2094.33 461.52 2094.33 482.256 2094.33 486.8C2094.33 490.192 2092.73 491.92 2088.89 491.92C2086.14 491.92 2082.36 491.728 2079.74 491.472L2079.29 486.352C2082.11 486.864 2084.99 487.12 2086.72 487.12C2088.44 487.12 2089.15 486.352 2089.21 484.688C2089.21 481.168 2089.21 459.344 2089.21 456.272C2089.21 454.096 2089.21 447.76 2089.21 444.368C2089.21 443.024 2088.96 440.784 2088.76 439.824H2094.72ZM2065.98 450.64C2067.77 450.832 2069.37 450.96 2071.42 450.96C2075.2 450.96 2107.52 450.96 2111.29 450.96C2112.76 450.96 2114.94 450.896 2116.48 450.64V455.952C2114.81 455.824 2112.89 455.824 2111.36 455.824C2107.52 455.824 2075.32 455.824 2071.42 455.824C2069.5 455.824 2067.64 455.888 2065.98 456.016V450.64ZM2080.7 465.68C2077.95 471.184 2072 479.312 2068.35 483.28L2064 480.272C2068.22 476.304 2073.72 468.688 2076.22 463.504L2080.7 465.68ZM2107.45 463.568C2110.84 467.664 2115.96 475.664 2118.52 480.272L2113.79 482.896C2111.23 477.904 2106.43 469.904 2103.1 465.872L2107.45 463.568ZM2182.2 449.424C2181.56 450.128 2180.99 450.832 2180.6 451.408C2175.8 459.28 2166.97 470.544 2155.64 478.736L2151.68 475.152C2161.92 468.048 2170.17 457.68 2173.56 451.6C2167.8 451.6 2139.58 451.6 2135.93 451.6C2133.37 451.6 2130.62 451.792 2129.4 451.92V446.224C2131.13 446.48 2133.69 446.672 2135.93 446.672C2139.2 446.672 2167.68 446.672 2174.08 446.672C2175.8 446.672 2177.28 446.544 2178.17 446.224L2182.2 449.424ZM2152.06 479.824C2148.22 475.984 2140.86 469.648 2137.47 467.216L2141.56 463.888C2144.51 466 2151.93 472.08 2156.54 476.56C2160.57 480.592 2165.56 485.84 2168.32 489.168L2163.64 492.88C2161.28 489.616 2156.16 483.984 2152.06 479.824ZM2205.18 441.552C2213.5 442.64 2230.65 446.224 2238.72 449.04L2236.67 453.968C2228.92 451.088 2212.16 447.44 2203.32 446.288L2205.18 441.552ZM2202.24 458.448C2211 459.984 2226.56 463.248 2234.49 466.128L2232.51 471.056C2225.08 468.176 2209.4 464.656 2200.32 463.248L2202.24 458.448ZM2198.78 477.072C2209.47 478.8 2228.09 483.152 2236.86 486.672L2234.62 491.6C2226.17 487.888 2207.1 483.6 2196.8 482L2198.78 477.072ZM2284.22 442.32C2283.58 443.856 2282.88 445.52 2281.98 448.272C2279.93 454.8 2272.51 477.776 2269.76 484.24L2264 484.432C2267.2 477.072 2274.62 453.904 2276.54 447.12C2277.37 444.176 2277.63 442.704 2277.82 440.976L2284.22 442.32ZM2296.38 463.76C2300.86 470.288 2307.9 483.216 2310.52 489.808L2305.21 492.176C2302.65 485.264 2296.12 471.952 2291.52 465.872L2296.38 463.76ZM2261.5 482.896C2270.72 482.448 2293.63 479.888 2301.88 478.672L2303.29 483.664C2294.4 484.816 2270.84 487.376 2261.82 488.272C2260.22 488.4 2258.3 488.656 2256.51 488.912L2255.48 483.024C2257.4 483.088 2259.64 483.024 2261.5 482.896ZM2366.59 443.408C2365.95 444.624 2365.05 446.8 2364.54 448.144C2362.11 454.48 2358.27 462.8 2353.02 469.456C2346.88 477.264 2338.56 485.712 2326.46 491.984L2322.11 488.016C2334.01 482.32 2342.2 474.704 2348.8 466.32C2354.04 459.536 2357.24 452.432 2359.42 446.16C2359.87 444.88 2360.44 442.768 2360.76 441.424L2366.59 443.408ZM2332.8 450.96C2339.13 454.992 2348.03 461.392 2352.89 465.296C2359.29 470.544 2365.63 476.112 2370.68 481.616L2366.65 486.032C2361.34 479.888 2355.77 474.832 2349.37 469.456C2344.76 465.616 2336.44 459.28 2329.4 454.992L2332.8 450.96ZM2390.4 444.624C2392.06 444.752 2393.98 444.816 2396.16 444.816C2400.7 444.816 2421.88 444.816 2426.56 444.816C2428.67 444.816 2430.4 444.752 2431.8 444.624V449.68C2430.27 449.616 2428.8 449.552 2426.56 449.552C2421.88 449.552 2399.48 449.552 2396.16 449.552C2393.98 449.552 2392.06 449.616 2390.4 449.68V444.624ZM2409.98 465.168C2409.98 469.904 2409.98 478.48 2409.98 480.72C2409.98 483.92 2412.16 485.904 2418.11 485.904C2424.12 485.904 2429.37 485.648 2434.88 485.008L2434.56 490.384C2429.63 490.704 2423.42 490.96 2417.34 490.96C2407.68 490.96 2404.6 487.568 2404.6 482.384C2404.6 477.712 2404.6 470.032 2404.6 464.976C2404.6 462.352 2404.6 450.704 2404.6 448.08H2409.98C2409.98 450.64 2409.98 463.376 2409.98 465.168ZM2386.17 462.736C2387.9 462.928 2390.46 463.056 2392.19 463.056C2396.8 463.056 2427.52 463.056 2431.48 463.056C2432.83 463.056 2435.39 462.928 2436.86 462.8V468.048C2435.39 467.92 2433.02 467.92 2431.61 467.92C2427.45 467.92 2396.8 467.92 2392.19 467.92C2390.52 467.92 2387.9 467.984 2386.17 468.112V462.736ZM2464.38 439.248C2464.57 440.592 2464.96 442.192 2465.47 444.112C2468.35 454.352 2475.71 481.104 2477.31 486.416C2477.63 487.76 2478.4 490 2478.91 491.408L2473.02 492.88C2472.7 491.408 2472.32 489.36 2471.8 487.632C2470.4 482.32 2461.82 450.32 2460.28 445.392C2459.58 443.088 2459.07 441.68 2458.49 440.656L2464.38 439.248ZM2501.37 449.68C2498.36 455.952 2490.49 466.512 2485.24 471.696L2480.06 469.2C2485.24 464.976 2491.39 457.104 2493.76 453.072C2490.3 453.648 2453.76 460.88 2448.32 462.224L2446.91 456.72C2449.08 456.528 2451 456.336 2453.24 455.952C2457.02 455.312 2490.88 448.976 2494.97 448.016C2495.93 447.824 2497.02 447.44 2497.79 447.12L2501.37 449.68ZM2556.92 448.912C2556.67 449.552 2556.48 450.512 2556.41 451.024C2555.71 457.488 2552.7 476.624 2551.8 482.256H2546.04C2547.13 476.688 2550.2 457.232 2550.33 452.496C2544.76 452.496 2528.19 452.496 2525.18 452.496C2522.75 452.496 2521.02 452.56 2519.04 452.752V447.056C2520.96 447.248 2523 447.44 2525.12 447.44C2528.12 447.44 2544.19 447.44 2548.67 447.44C2549.95 447.44 2551.93 447.184 2552.64 446.864L2556.92 448.912ZM2511.87 480.528C2513.72 480.848 2515.71 480.912 2517.5 480.912H2560.64C2562.62 480.912 2564.35 480.72 2566.01 480.528V486.416C2564.28 486.16 2561.98 486.096 2560.64 486.096H2517.5C2515.71 486.096 2513.79 486.224 2511.87 486.416V480.528ZM2581.5 445.136C2582.97 445.264 2587.45 445.456 2589.5 445.456C2593.92 445.456 2612.92 445.456 2619.45 445.456C2621.24 445.456 2622.84 445.392 2623.93 445.264C2623.87 446.16 2623.87 447.504 2623.87 449.104C2623.87 451.92 2623.87 480.976 2623.87 487.76C2623.87 489.104 2623.93 490.512 2624 491.664H2618.49C2618.56 490.704 2618.56 489.104 2618.56 487.44C2618.56 479.056 2618.56 452.688 2618.56 450.256C2615.93 450.256 2593.92 450.256 2589.5 450.256C2587.45 450.256 2582.97 450.384 2581.5 450.512V445.136ZM2583.29 463.696C2584.89 463.824 2587.64 464.016 2590.27 464.016C2594.49 464.016 2619 464.016 2621.31 464.016V468.816C2619 468.816 2594.49 468.816 2590.33 468.816C2587.64 468.816 2584.89 468.88 2583.29 468.944V463.696ZM2580.6 483.152C2581.88 483.28 2584.19 483.408 2587 483.408C2591.48 483.408 2617.79 483.408 2621.37 483.408V488.4C2617.34 488.4 2591.55 488.4 2587 488.4C2584.51 488.4 2581.88 488.528 2580.6 488.592V483.152ZM2649.6 442.384C2651.26 442.576 2653.24 442.704 2655.29 442.704C2658.75 442.704 2676.73 442.704 2680.51 442.704C2682.49 442.704 2684.73 442.576 2686.27 442.384V447.696C2684.8 447.568 2682.56 447.504 2680.38 447.504C2676.8 447.504 2658.81 447.504 2655.29 447.504C2653.37 447.504 2651.32 447.568 2649.6 447.696V442.384ZM2691 459.216C2690.68 459.856 2690.24 460.624 2690.11 461.136C2688.44 467.408 2685.56 474.064 2680.76 479.312C2674.11 486.672 2666.04 490.384 2657.92 492.688L2653.95 488.144C2662.97 486.288 2670.97 482.128 2676.48 476.368C2680.32 472.336 2682.88 466.896 2684.03 462.224C2680.89 462.224 2653.95 462.224 2650.11 462.224C2648.57 462.224 2646.14 462.288 2643.84 462.48V457.104C2646.14 457.296 2648.32 457.488 2650.11 457.488C2653.24 457.488 2680.51 457.488 2683.77 457.488C2685.24 457.488 2686.65 457.296 2687.36 456.976L2691 459.216ZM2748.41 441.488C2748.28 443.024 2748.22 444.88 2748.22 447.056C2748.22 449.552 2748.22 454.992 2748.22 457.36C2748.22 472.784 2746.17 477.84 2741.5 483.28C2737.4 488.272 2731 491.088 2726.33 492.688L2722.11 488.272C2728 486.736 2733.44 484.24 2737.4 479.696C2741.95 474.448 2742.78 469.2 2742.78 457.168C2742.78 454.672 2742.78 449.296 2742.78 447.056C2742.78 444.88 2742.59 443.024 2742.4 441.488H2748.41ZM2718.72 442C2718.59 443.216 2718.52 445.072 2718.52 446.544C2718.52 448.464 2718.52 465.232 2718.52 467.92C2718.52 469.584 2718.59 471.696 2718.72 472.848H2712.89C2713.02 471.824 2713.15 469.776 2713.15 467.92C2713.15 465.168 2713.15 448.464 2713.15 446.544C2713.15 445.456 2713.08 443.216 2712.89 442H2718.72ZM2796.28 488.656C2796.54 487.696 2796.73 486.352 2796.73 485.072C2796.73 482.128 2796.73 450.768 2796.73 446.736C2796.73 444.304 2796.41 442.512 2796.41 442H2802.3C2802.24 442.512 2801.98 444.368 2801.98 446.8C2801.98 450.768 2801.98 481.744 2801.98 483.664C2807.93 480.976 2815.8 475.152 2820.67 467.92L2823.74 472.336C2818.17 479.824 2809.34 486.352 2801.92 490.064C2800.83 490.576 2800.19 491.152 2799.68 491.472L2796.28 488.656ZM2766.97 488.4C2772.41 484.56 2776.19 478.864 2778.11 472.656C2780.03 466.768 2780.03 454.032 2780.03 446.864C2780.03 445.008 2779.9 443.6 2779.58 442.256H2785.47C2785.4 442.96 2785.15 444.944 2785.15 446.8C2785.15 453.904 2784.96 467.664 2783.23 474.064C2781.31 480.912 2777.21 487.12 2771.84 491.6L2766.97 488.4ZM2841.02 488.016C2841.47 486.992 2841.6 486.096 2841.6 484.88C2841.6 480.848 2841.6 454.352 2841.6 448.272C2841.6 446.544 2841.34 443.664 2841.08 442.448H2847.36C2847.16 443.984 2846.91 446.416 2846.91 448.208C2846.91 454.288 2846.91 481.296 2846.91 484.56C2859.2 481.424 2873.98 473.04 2881.98 462.736L2884.86 467.216C2876.54 477.52 2863.36 485.392 2847.36 490.064C2846.72 490.256 2845.69 490.576 2844.67 491.152L2841.02 488.016ZM2900.16 446.16C2902.65 446.288 2904.32 446.288 2905.85 446.288C2909.24 446.288 2937.08 446.288 2940.22 446.288C2941.56 446.288 2943.87 446.288 2945.85 446.224C2945.72 447.76 2945.72 449.552 2945.72 451.152C2945.72 454.16 2945.72 480.272 2945.72 482.704C2945.72 484.752 2945.79 489.744 2945.85 490.448H2940.28C2940.35 489.744 2940.41 486.096 2940.41 483.408C2940.41 481.04 2940.41 451.344 2940.41 451.344H2905.47C2905.47 451.344 2905.47 480.784 2905.47 483.408C2905.47 485.52 2905.53 489.616 2905.53 490.448H2900.09C2900.09 489.616 2900.22 484.944 2900.22 482.704C2900.22 480.08 2900.22 453.648 2900.22 451.152C2900.22 449.68 2900.22 447.76 2900.16 446.16ZM2942.52 481.808V486.8H2902.91V481.808H2942.52ZM3010.88 447.312C3010.56 447.952 3010.11 449.68 3010.04 450.32C3008.89 457.872 3007.55 467.024 3002.88 474.256C2997.69 482.384 2988.99 488.912 2978.68 492.24L2974.33 487.888C2983.74 485.328 2992.89 479.76 2998.08 471.568C3001.72 465.936 3003.52 457.744 3004.16 450.192C3000.57 450.192 2973.44 450.192 2968.89 450.192C2968.89 451.984 2968.89 460.944 2968.89 462.992C2968.89 463.888 2968.89 465.488 2969.02 467.088H2963.26C2963.39 465.552 2963.45 464.208 2963.45 462.992C2963.45 460.944 2963.45 452.048 2963.45 449.296C2963.45 447.824 2963.39 446.416 2963.26 445.072C2964.92 445.2 2967.29 445.2 2970.04 445.2C2972.22 445.2 2999.29 445.2 3002.94 445.2C3004.28 445.2 3005.82 445.136 3006.97 444.88L3010.88 447.312ZM3029.18 444.048C3030.52 444.176 3033.08 444.496 3035.71 444.496C3040.06 444.496 3063.87 444.496 3067.07 444.496C3068.54 444.496 3069.88 444.432 3070.97 444.112L3075.07 446.672C3074.81 447.312 3074.49 448.016 3074.3 449.04C3072.83 457.04 3070.52 467.216 3066.75 472.976C3060.73 482.192 3052.73 488.464 3040.12 492.688L3035.96 488.272C3047.04 485.648 3056 479.76 3061.82 471.184C3065.34 465.936 3067.52 456.72 3068.48 449.424C3064.57 449.424 3040.12 449.424 3035.77 449.424C3033.72 449.424 3031.48 449.488 3029.18 449.68V444.048ZM3067.64 465.808C3063.1 465.808 3040.89 465.808 3036.67 465.808C3034.49 465.808 3032.76 465.936 3030.84 466.064V460.816C3032.57 460.944 3034.49 461.072 3036.54 461.072C3040.89 461.072 3063.74 461.072 3068.09 461.072L3067.64 465.808ZM3097.34 443.152C3101.82 446.16 3110.08 452.816 3113.6 456.336L3109.63 460.432C3106.36 457.104 3098.43 450.192 3093.63 447.056L3097.34 443.152ZM3091.84 486.032C3102.97 484.368 3111.29 480.464 3117.37 476.688C3127.29 470.48 3135.04 461.008 3138.75 453.072L3141.82 458.576C3137.47 466.512 3130.04 475.216 3120.38 481.296C3113.92 485.328 3105.85 489.296 3095.16 491.28L3091.84 486.032Z" fill="black"/>
</svg>
